<svg width="61" height="60" viewBox="0 0 61 60" fill="none" xmlns="http://www.w3.org/2000/svg">
<g clip-path="url(#clip0_4399_1435)">
<path d="M40.7339 20.8203C40.7339 26.6193 36.0329 31.3203 30.2339 31.3203C24.4349 31.3203 19.7339 26.6193 19.7339 20.8203C19.7339 15.0213 24.4349 10.3203 30.2339 10.3203C36.0329 10.3203 40.7339 15.0213 40.7339 20.8203Z" fill="#FFEF9D" stroke="#FFD121" stroke-width="3"/>
<path d="M25.1667 23.9994C26.6394 23.9994 27.8333 22.8054 27.8333 21.3327C27.8333 19.8599 26.6394 18.666 25.1667 18.666C23.6939 18.666 22.5 19.8599 22.5 21.3327C22.5 22.8054 23.6939 23.9994 25.1667 23.9994Z" fill="#FFD121"/>
<path d="M26.0337 21.332C26.586 21.332 27.0337 20.8843 27.0337 20.332C27.0337 19.7797 26.586 19.332 26.0337 19.332C25.4814 19.332 25.0337 19.7797 25.0337 20.332C25.0337 20.8843 25.4814 21.332 26.0337 21.332Z" fill="#FDEFA6"/>
<path d="M35.1667 21.3333C36.6394 21.3333 37.8333 20.1394 37.8333 18.6667C37.8333 17.1939 36.6394 16 35.1667 16C33.6939 16 32.5 17.1939 32.5 18.6667C32.5 20.1394 33.6939 21.3333 35.1667 21.3333Z" fill="#FFD121"/>
<path d="M36.0337 18.666C36.586 18.666 37.0337 18.2183 37.0337 17.666C37.0337 17.1137 36.586 16.666 36.0337 16.666C35.4814 16.666 35.0337 17.1137 35.0337 17.666C35.0337 18.2183 35.4814 18.666 36.0337 18.666Z" fill="#FDEFA6"/>
<path d="M31.7523 46.3867H29.2476V57.7354H31.7523V46.3867Z" fill="#E3AC5A" stroke="#E3AC5A"/>
<path d="M22.6259 56.9718C21.9278 56.9718 21.3618 57.5378 21.3618 58.2359C21.3618 58.934 21.9278 59.5 22.6259 59.5H38.3739C39.0721 59.5 39.638 58.934 39.638 58.2359C39.638 57.5378 39.0721 56.9718 38.3739 56.9718H22.6259Z" fill="#E3AC5A" stroke="#E3AC5A"/>
<path d="M2.5 11.9395C2.5 10.8349 3.39543 9.93945 4.5 9.93945H56.5C57.6046 9.93945 58.5 10.8349 58.5 11.9395V15.9395C58.5 21.4623 54.0229 25.9395 48.5 25.9395H12.5C6.97715 25.9395 2.5 21.4623 2.5 15.9395V11.9395Z" fill="#FAEDDA" stroke="#E3AC5A" stroke-width="4"/>
<path d="M11.1665 3.65432C11.1665 2.74066 11.9072 2 12.8208 2H48.1788C49.0925 2 49.8332 2.74067 49.8332 3.65432V28C49.8332 38.6775 41.1773 47.3333 30.4998 47.3333C19.8223 47.3333 11.1665 38.6775 11.1665 28V3.65432Z" fill="#FAEDDA" stroke="#E3AC5A" stroke-width="4"/>
<path d="M40.7339 20.8203C40.7339 26.6193 36.0329 31.3203 30.2339 31.3203C24.4349 31.3203 19.7339 26.6193 19.7339 20.8203C19.7339 15.0213 24.4349 10.3203 30.2339 10.3203C36.0329 10.3203 40.7339 15.0213 40.7339 20.8203Z" fill="#F3DDBD" stroke="#E3AC5A" stroke-width="3"/>
<path d="M25.1667 23.9994C26.6394 23.9994 27.8333 22.8054 27.8333 21.3327C27.8333 19.8599 26.6394 18.666 25.1667 18.666C23.6939 18.666 22.5 19.8599 22.5 21.3327C22.5 22.8054 23.6939 23.9994 25.1667 23.9994Z" fill="#E3AC5A"/>
<path d="M26.0337 21.332C26.586 21.332 27.0337 20.8843 27.0337 20.332C27.0337 19.7797 26.586 19.332 26.0337 19.332C25.4814 19.332 25.0337 19.7797 25.0337 20.332C25.0337 20.8843 25.4814 21.332 26.0337 21.332Z" fill="#F3DDBD"/>
<path d="M35.1667 21.3333C36.6394 21.3333 37.8333 20.1394 37.8333 18.6667C37.8333 17.1939 36.6394 16 35.1667 16C33.6939 16 32.5 17.1939 32.5 18.6667C32.5 20.1394 33.6939 21.3333 35.1667 21.3333Z" fill="#E3AC5A"/>
<path d="M36.0337 18.666C36.586 18.666 37.0337 18.2183 37.0337 17.666C37.0337 17.1137 36.586 16.666 36.0337 16.666C35.4814 16.666 35.0337 17.1137 35.0337 17.666C35.0337 18.2183 35.4814 18.666 36.0337 18.666Z" fill="#F3DDBD"/>
</g>
<defs>
<clipPath id="clip0_4399_1435">
<rect width="60" height="60" fill="white" transform="translate(0.5)"/>
</clipPath>
</defs>
</svg>
