
<svg viewBox="0 0 460 189" fill="none" xmlns="http://www.w3.org/2000/svg">
<g clip-path="url(#clip0_4326_4814)">
<path d="M164.213 94.3659C164.278 99.9971 163.64 105.597 162.316 111.045C161.306 115.066 159.975 119.018 158.295 122.818C155.989 128.039 153.102 132.946 149.654 137.498C148.454 139.108 147.185 140.632 145.823 142.118C144.775 143.26 143.764 144.425 142.63 145.501C139.847 148.187 136.868 150.694 133.705 152.939C126.998 157.722 119.502 161.263 111.557 163.446C108.395 164.301 105.164 164.964 101.905 165.381C100.257 165.601 98.6463 165.76 96.998 165.857C95.2566 165.953 93.4841 166.112 91.7117 166.046C89.1496 165.981 86.6151 165.857 84.053 165.57C80.9839 165.191 77.946 164.657 74.9356 163.895C65.8182 161.588 57.2146 157.501 49.6524 151.929C47.6593 150.47 45.7558 148.918 43.9558 147.243C43.042 146.387 42.0903 145.567 41.173 144.649C38.2937 141.705 35.6384 138.542 33.266 135.153C30.9246 131.829 28.9004 128.284 27.19 124.615C24.8831 119.642 23.1693 114.421 22.1313 109.076C21.6934 106.801 21.4072 104.521 21.1796 102.207C20.9589 99.7109 20.8658 97.1763 20.8934 94.6418C20.921 92.7452 20.921 90.8797 21.0175 89.0107C21.1141 86.8279 21.3313 84.6761 21.6831 82.5244C22.121 79.4864 22.79 76.4829 23.6176 73.5036C26.4004 63.8517 31.2487 54.8964 37.7936 47.3032C39.3109 45.5031 40.9282 43.7893 42.6351 42.1789C45.0731 39.8375 47.6938 37.6823 50.449 35.6926C53.9284 33.1961 57.6319 31.0064 61.5285 29.1753C66.2734 26.958 71.2079 25.2511 76.3425 24.1166C78.877 23.5166 81.4667 23.1063 84.0599 22.82C85.6426 22.6304 87.1944 22.5338 88.8048 22.4407C90.5117 22.3442 92.1876 22.3442 93.9014 22.3752C96.529 22.4407 99.1877 22.6304 101.781 22.9476C106.905 23.6132 111.974 24.8132 116.871 26.5201C120.891 27.9408 124.778 29.7132 128.485 31.865C131.171 33.4168 133.771 35.1237 136.24 37.0203C138.078 38.441 139.812 39.9651 141.557 41.4789C143.043 42.841 144.437 44.2617 145.768 45.7169C147.606 47.7446 149.313 49.8894 150.892 52.1101C153.388 55.5895 155.54 59.324 157.378 63.2172C160.827 70.6208 162.978 78.5657 163.799 86.7003C164.054 89.2624 164.209 91.7969 164.209 94.359H164.216V94.3659H164.213ZM91.9358 152.374C107.912 152.153 121.209 146.801 132.319 136.263C143.743 125.47 150.04 112.211 150.609 96.3556C151.182 79.9037 145.895 65.631 134.499 53.7895C123.609 42.4617 110.226 36.2237 94.4669 35.8513C78.3563 35.4409 64.1147 40.5651 52.349 51.7032C40.7351 62.6517 34.8212 76.3864 34.3143 92.2694C33.8074 108.152 38.904 122.108 49.88 133.691C61.4285 145.905 75.7942 151.953 91.9393 152.363L91.9324 152.37H91.9358V152.374Z" fill="white"/>
<path d="M59.1837 114.277C57.3182 114.373 55.4216 114.153 53.6112 113.677C51.487 113.011 49.5629 111.904 47.9422 110.449C46.5525 109.183 45.4076 107.697 44.5214 106.049C43.6352 104.308 43.0042 102.439 42.749 100.514C41.9869 95.9591 43.2835 91.2729 46.2939 87.759C48.856 84.69 52.4664 82.6624 56.4492 82.0624C59.6768 81.4899 62.9665 81.9382 65.9459 83.3279C70.2149 85.2245 73.4425 88.9004 74.8357 93.3591C76.1322 97.2178 75.846 101.459 74.1391 105.132C73.2839 107.066 72.0805 108.801 70.5666 110.256C68.2252 112.532 65.1562 113.959 61.8975 114.304C60.9458 114.304 60.0975 114.239 59.1734 114.277H59.1837ZM63.3941 97.1281C66.339 97.2247 68.5494 94.9764 68.6149 91.9349C68.6804 90.0384 67.7597 88.6487 66.339 87.5038C65.4838 86.7142 64.3114 86.3038 63.1458 86.3969C60.2665 86.6831 57.9527 89.6246 58.2113 92.3798C58.4665 95.0384 60.7079 97.2557 63.4045 97.1247H63.3941V97.1281Z" fill="white"/>
<path d="M105.577 82.4658C105.55 78.5416 106.56 75.2519 108.681 72.3381C111.15 68.8587 114.95 66.5173 119.154 65.8794C121.716 65.5 124.347 65.6897 126.812 66.4518C129.03 67.1173 131.081 68.3173 132.757 69.9001C135.637 72.5863 137.188 75.9105 137.692 79.7692C138.292 84.7038 137.254 89.2004 133.988 93.0591C131.454 96.1281 127.816 98.0902 123.861 98.535C119.495 99.1074 115.478 98.1247 111.96 95.4315C108.605 92.897 106.36 89.1625 105.691 85.0176C105.626 84.1969 105.567 83.3106 105.567 82.4555L105.574 82.4624H105.577V82.4658ZM125.992 70.6346C123.398 70.6346 121.495 72.0243 120.743 74.3691C120.078 76.645 121.057 79.3037 123.019 80.352C124.857 81.4279 127.133 81.4279 128.964 80.352C130.957 79.2761 132.068 76.5209 131.336 74.4347C130.547 72.1863 128.392 70.6725 125.992 70.6346Z" fill="white"/>
<path d="M94.3739 138.511C90.0083 138.446 85.6737 137.787 81.4944 136.549C79.0564 135.825 76.684 134.873 74.4356 133.729C73.5218 133.318 72.7873 132.556 72.4425 131.604C71.5563 129.135 73.2322 126.573 75.7977 126.546C76.5874 126.546 77.3805 126.766 78.0736 127.146C79.084 127.653 80.1599 128.06 81.2082 128.508C84.0875 129.649 87.0944 130.404 90.191 130.784C92.2773 131.039 94.4015 131.098 96.4877 130.946C98.8291 130.784 101.136 130.346 103.384 129.649C105.509 128.984 107.557 128.039 109.46 126.866C111.453 125.629 113.319 124.208 114.995 122.628C116.957 120.828 118.567 118.704 120.188 116.587C120.695 115.956 121.074 115.197 121.771 114.69C123.229 113.642 125.219 113.777 126.554 114.977C127.726 116.084 128.071 117.797 127.374 119.246C126.774 120.511 125.857 121.553 125.033 122.628C123.547 124.563 121.929 126.363 120.157 128.039C117.816 130.287 115.185 132.249 112.343 133.832C109.619 135.349 106.712 136.518 103.702 137.28C101.205 137.946 98.6705 138.329 96.0705 138.356C95.4704 138.384 94.898 138.577 94.3635 138.518L94.3704 138.511H94.3739Z" fill="white"/>
<path d="M193.924 144.56C191.444 143.546 189.465 142.043 187.982 140.049C186.499 138.06 185.717 135.663 185.637 132.86H196.727C196.889 134.442 197.437 135.653 198.372 136.484C199.306 137.318 200.524 137.732 202.027 137.732C203.531 137.732 204.789 137.377 205.682 136.667C206.575 135.956 207.024 134.97 207.024 133.711C207.024 132.656 206.669 131.784 205.958 131.091C205.248 130.401 204.375 129.832 203.337 129.384C202.303 128.939 200.827 128.429 198.92 127.86C196.158 127.008 193.903 126.153 192.155 125.301C190.406 124.449 188.903 123.191 187.644 121.522C186.385 119.856 185.754 117.684 185.754 115.001C185.754 111.021 187.196 107.901 190.082 105.649C192.965 103.394 196.724 102.266 201.355 102.266C205.986 102.266 209.865 103.394 212.748 105.649C215.631 107.904 217.176 111.042 217.379 115.063H206.106C206.024 113.684 205.517 112.594 204.582 111.804C203.648 111.011 202.451 110.615 200.986 110.615C199.727 110.615 198.71 110.949 197.937 111.621C197.165 112.29 196.779 113.256 196.779 114.515C196.779 115.897 197.427 116.973 198.73 117.746C200.031 118.518 202.062 119.353 204.824 120.246C207.586 121.18 209.831 122.073 211.558 122.928C213.286 123.78 214.776 125.022 216.038 126.646C217.296 128.27 217.927 130.363 217.927 132.922C217.927 135.48 217.307 137.574 216.069 139.563C214.831 141.553 213.031 143.139 210.676 144.315C208.32 145.494 205.537 146.081 202.327 146.081C199.117 146.081 196.396 145.574 193.917 144.556L193.924 144.56Z" fill="white"/>
<path d="M224.424 119.394C225.865 116.753 227.876 114.721 230.455 113.301C233.035 111.88 235.99 111.17 239.321 111.17C243.586 111.17 247.152 112.287 250.014 114.521C252.88 116.756 254.756 119.904 255.652 123.966H244.562C243.628 121.366 241.821 120.066 239.138 120.066C237.228 120.066 235.704 120.808 234.569 122.291C233.431 123.773 232.862 125.897 232.862 128.66C232.862 131.422 233.431 133.546 234.569 135.029C235.707 136.511 237.228 137.253 239.138 137.253C241.821 137.253 243.628 135.953 244.562 133.353H255.652C254.759 137.336 252.869 140.463 249.986 142.736C247.1 145.012 243.548 146.15 239.324 146.15C235.993 146.15 233.038 145.439 230.459 144.015C227.879 142.594 225.869 140.563 224.427 137.922C222.986 135.28 222.265 132.194 222.265 128.66C222.265 125.125 222.986 122.039 224.427 119.397L224.424 119.394Z" fill="white"/>
<path d="M267.687 144.012C265.025 142.591 262.935 140.56 261.411 137.918C259.887 135.277 259.125 132.191 259.125 128.656C259.125 125.122 259.897 122.087 261.442 119.425C262.987 116.766 265.097 114.725 267.78 113.301C270.463 111.88 273.466 111.17 276.797 111.17C280.128 111.17 283.135 111.88 285.815 113.301C288.497 114.721 290.608 116.763 292.153 119.425C293.697 122.087 294.466 125.163 294.466 128.656C294.466 132.149 293.684 135.229 292.122 137.887C290.556 140.549 288.425 142.591 285.725 144.012C283.021 145.432 280.008 146.146 276.676 146.146C273.345 146.146 270.349 145.436 267.69 144.012H267.687ZM281.763 134.932C283.163 133.47 283.866 131.377 283.866 128.656C283.866 125.935 283.187 123.842 281.825 122.38C280.463 120.918 278.787 120.187 276.797 120.187C274.808 120.187 273.08 120.908 271.738 122.349C270.397 123.791 269.728 125.894 269.728 128.656C269.728 131.418 270.387 133.47 271.707 134.932C273.028 136.394 274.683 137.125 276.673 137.125C278.663 137.125 280.359 136.394 281.763 134.932Z" fill="white"/>
<path d="M310.432 100.563V145.656H300.011V100.563H310.432Z" fill="white"/>
<path d="M317.898 119.394C319.219 116.753 321.015 114.721 323.291 113.301C325.567 111.88 328.105 111.17 330.908 111.17C333.305 111.17 335.405 111.656 337.215 112.632C339.022 113.608 340.415 114.887 341.388 116.47V111.656H351.809V145.656H341.388V140.843C340.371 142.425 338.96 143.708 337.153 144.681C335.346 145.656 333.243 146.143 330.846 146.143C328.084 146.143 325.563 145.422 323.291 143.981C321.015 142.539 319.219 140.487 317.898 137.825C316.577 135.167 315.918 132.087 315.918 128.594C315.918 125.101 316.577 122.035 317.898 119.394ZM339.226 122.501C337.784 120.997 336.026 120.246 333.953 120.246C331.881 120.246 330.122 120.987 328.681 122.47C327.239 123.953 326.519 125.994 326.519 128.594C326.519 131.194 327.239 133.256 328.681 134.78C330.122 136.305 331.881 137.067 333.953 137.067C336.026 137.067 337.781 136.315 339.226 134.811C340.667 133.308 341.388 131.256 341.388 128.656C341.388 126.056 340.667 124.004 339.226 122.501Z" fill="white"/>
<path d="M360.122 106.504C358.964 105.428 358.385 104.097 358.385 102.514C358.385 100.932 358.964 99.5384 360.122 98.4626C361.281 97.3867 362.774 96.8488 364.602 96.8488C366.429 96.8488 367.861 97.3867 369.019 98.4626C370.178 99.5384 370.757 100.89 370.757 102.514C370.757 104.139 370.178 105.428 369.019 106.504C367.861 107.58 366.388 108.118 364.602 108.118C362.816 108.118 361.281 107.58 360.122 106.504ZM369.781 111.652V145.653H359.36V111.652H369.781Z" fill="white"/>
<path d="M392.33 112.904C394.158 111.828 396.189 111.29 398.423 111.29V122.318H395.558C392.958 122.318 391.006 122.877 389.709 123.994C388.409 125.111 387.761 127.07 387.761 129.873V145.656H377.34V111.656H387.761V117.322C388.978 115.453 390.502 113.98 392.33 112.904Z" fill="white"/>
<path d="M435.286 131.153H411.703C411.865 133.267 412.544 134.88 413.744 135.998C414.941 137.115 416.417 137.674 418.161 137.674C420.761 137.674 422.568 136.577 423.586 134.384H434.675C434.106 136.618 433.082 138.629 431.599 140.415C430.117 142.205 428.258 143.605 426.024 144.618C423.789 145.636 421.289 146.143 418.527 146.143C415.196 146.143 412.23 145.432 409.63 144.008C407.03 142.587 404.999 140.556 403.537 137.915C402.075 135.274 401.344 132.187 401.344 128.653C401.344 125.118 402.065 122.032 403.506 119.391C404.947 116.749 406.968 114.718 409.568 113.297C412.168 111.877 415.154 111.166 418.527 111.166C421.899 111.166 424.741 111.856 427.303 113.239C429.862 114.621 431.862 116.59 433.306 119.149C434.748 121.708 435.469 124.694 435.469 128.108C435.469 129.084 435.406 130.098 435.286 131.156V131.153ZM424.806 125.363C424.806 123.577 424.196 122.156 422.979 121.097C421.761 120.042 420.237 119.515 418.41 119.515C416.582 119.515 415.189 120.022 413.992 121.039C412.792 122.056 412.051 123.497 411.768 125.366H424.81L424.806 125.363Z" fill="white"/>
<path d="M225.731 42.7823V80.3243H218.2V55.9067L208.141 80.3243H202.441L192.33 55.9067V80.3243H184.799V42.7823H193.351L205.293 70.6966L217.231 42.7823H225.728H225.731Z" fill="white"/>
<path d="M259.1 60.0481C258.149 61.8068 256.662 63.2206 254.635 64.2965C252.607 65.3723 250.055 65.9103 246.969 65.9103H240.676V80.3243H233.145V42.7823H246.966C249.869 42.7823 252.345 43.2858 254.386 44.2893C256.431 45.2927 257.962 46.6755 258.983 48.4307C260.004 50.1894 260.518 52.179 260.518 54.3998C260.518 56.4067 260.042 58.2895 259.093 60.0481H259.1ZM251.276 58.4067C252.28 57.4584 252.783 56.1205 252.783 54.3998C252.783 50.7411 250.738 48.9135 246.652 48.9135H240.683V59.8309H246.652C248.731 59.8309 250.273 59.355 251.276 58.4067Z" fill="white"/>
<path d="M291.801 60.0481C290.849 61.8068 289.363 63.2206 287.335 64.2965C285.308 65.3723 282.756 65.9103 279.67 65.9103H273.377V80.3243H265.845V42.7823H279.666C282.57 42.7823 285.046 43.2858 287.087 44.2893C289.132 45.2927 290.663 46.6755 291.687 48.4307C292.708 50.1894 293.222 52.179 293.222 54.3998C293.222 56.4067 292.746 58.2895 291.798 60.0481H291.801ZM283.977 58.4067C284.98 57.4584 285.484 56.1205 285.484 54.3998C285.484 50.7411 283.439 48.9135 279.353 48.9135H273.383V59.8309H279.353C281.432 59.8309 282.973 59.355 283.977 58.4067Z" fill="white"/>
</g>
<defs>
<clipPath id="clip0_4326_4814">
<rect width="460" height="188.079" fill="white" transform="translate(0 0.0786133)"/>
</clipPath>
</defs>
</svg>
