<svg viewBox="0 0 145 144" fill="none" xmlns="http://www.w3.org/2000/svg">
<path d="M144.213 72.2877C144.278 77.9188 143.64 83.5189 142.316 88.9672C141.306 92.988 139.975 96.9398 138.295 100.74C135.989 105.961 133.102 110.868 129.654 115.419C128.454 117.03 127.185 118.554 125.823 120.04C124.775 121.182 123.764 122.347 122.63 123.423C119.847 126.109 116.868 128.616 113.705 130.861C106.998 135.644 99.5018 139.185 91.5568 141.368C88.3947 142.223 85.1636 142.885 81.9049 143.303C80.2566 143.523 78.6463 143.682 76.998 143.778C75.2566 143.875 73.4841 144.034 71.7117 143.968C69.1496 143.903 66.6151 143.778 64.053 143.492C60.9839 143.113 57.946 142.578 54.9356 141.816C45.8182 139.509 37.2146 135.423 29.6524 129.851C27.6593 128.392 25.7558 126.84 23.9558 125.164C23.042 124.309 22.0903 123.488 21.173 122.571C18.2937 119.626 15.6384 116.464 13.266 113.075C10.9246 109.75 8.90041 106.205 7.19004 102.536C4.88311 97.5639 3.16929 92.3432 2.13134 86.9983C1.6934 84.7224 1.40719 82.443 1.1796 80.1292C0.958908 77.6326 0.865804 75.0981 0.893391 72.5636C0.920977 70.667 0.920978 68.8014 1.01753 66.9324C1.11408 64.7496 1.33133 62.5979 1.68306 60.4461C2.121 57.4082 2.78997 54.4047 3.61757 51.4253C6.40037 41.7734 11.2487 32.8181 17.7936 25.2249C19.3109 23.4249 20.9282 21.7111 22.6351 20.1007C25.0731 17.7593 27.6938 15.6041 30.449 13.6144C33.9284 11.1178 37.6319 8.92812 41.5285 7.09706C46.2734 4.87979 51.2079 3.17286 56.3425 2.03836C58.877 1.43835 61.4667 1.028 64.0599 0.741792C65.6426 0.552134 67.1944 0.455581 68.8048 0.362476C70.5117 0.265923 72.1876 0.265925 73.9014 0.29696C76.529 0.362478 79.1877 0.552135 81.7808 0.869381C86.905 1.53491 91.9741 2.73493 96.8707 4.44185C100.891 5.86256 104.778 7.635 108.485 9.78676C111.171 11.3385 113.771 13.0454 116.24 14.942C118.078 16.3627 119.812 17.8869 121.557 19.4007C123.043 20.7628 124.437 22.1835 125.768 23.6387C127.606 25.6663 129.313 27.8112 130.892 30.0319C133.388 33.5112 135.54 37.2458 137.378 41.139C140.827 48.5425 142.978 56.4875 143.799 64.6221C144.054 67.1842 144.209 69.7187 144.209 72.2808H144.216V72.2877H144.213ZM71.9358 130.295C87.9119 130.075 101.209 124.723 112.319 114.185C123.743 103.392 130.04 90.1328 130.609 74.2774C131.182 57.8254 125.895 43.5528 114.499 31.7112C103.609 20.3835 90.2258 14.1454 74.4669 13.773C58.3563 13.3627 44.1147 18.4869 32.349 29.625C20.7351 40.5734 14.8212 54.3081 14.3143 70.1911C13.8074 86.0741 18.904 100.029 29.88 111.612C41.4285 123.826 55.7942 129.875 71.9393 130.285L71.9324 130.292H71.9358V130.295Z" fill="url(#paint0_linear_2006_655)"/>
<path d="M39.1837 92.1983C37.3182 92.2948 35.4216 92.0741 33.6112 91.5983C31.487 90.9327 29.5629 89.8258 27.9422 88.3706C26.5525 87.1051 25.4076 85.6189 24.5214 83.9706C23.6352 82.2292 23.0042 80.3602 22.749 78.436C21.9869 73.8808 23.2835 69.1945 26.2939 65.6806C28.856 62.6116 32.4664 60.584 36.4492 59.984C39.6768 59.4116 42.9665 59.8599 45.9459 61.2495C50.2149 63.1461 53.4425 66.822 54.8357 71.2807C56.1322 75.1394 55.846 79.3808 54.1391 83.0533C53.2839 84.9878 52.0805 86.7223 50.5666 88.1775C48.2252 90.4534 45.1562 91.881 41.8975 92.2259C40.9458 92.2259 40.0975 92.1604 39.1734 92.1983H39.1837ZM43.3941 75.0497C46.339 75.1463 48.5494 72.898 48.6149 69.8566C48.6804 67.96 47.7597 66.5703 46.339 65.4255C45.4838 64.6358 44.3114 64.2254 43.1458 64.3185C40.2665 64.6048 37.9527 67.5462 38.2113 70.3014C38.4665 72.9601 40.7079 75.1773 43.4045 75.0463H43.3941V75.0497Z" fill="url(#paint1_linear_2006_655)"/>
<path d="M85.5775 60.3876C85.5499 56.4634 86.5603 53.1737 88.681 50.2598C91.15 46.7805 94.95 44.439 99.1535 43.8011C101.716 43.4218 104.347 43.6114 106.812 44.3735C109.03 45.039 111.081 46.2391 112.757 47.8218C115.637 50.5081 117.188 53.8323 117.692 57.691C118.292 62.6255 117.254 67.1221 113.988 70.9808C111.454 74.0498 107.816 76.0119 103.861 76.4568C99.4949 77.0292 95.4776 76.0464 91.9603 73.3533C88.6051 70.8187 86.3602 67.0842 85.6913 62.9393C85.6258 62.1186 85.5671 61.2324 85.5671 60.3772L85.574 60.3841H85.5775V60.3876ZM105.992 48.5563C103.398 48.5563 101.495 49.946 100.743 52.2909C100.078 54.5668 101.057 57.2254 103.019 58.2737C104.857 59.3496 107.133 59.3496 108.964 58.2737C110.957 57.1979 112.068 54.4426 111.336 52.3564C110.547 50.1081 108.392 48.5943 105.992 48.5563Z" fill="url(#paint2_linear_2006_655)"/>
<path d="M74.3739 116.433C70.0083 116.368 65.6737 115.709 61.4944 114.471C59.0564 113.747 56.684 112.795 54.4356 111.65C53.5218 111.24 52.7873 110.478 52.4425 109.526C51.5563 107.057 53.2322 104.495 55.7977 104.468C56.5874 104.468 57.3805 104.688 58.0736 105.068C59.084 105.574 60.1599 105.981 61.2082 106.43C64.0875 107.571 67.0944 108.326 70.191 108.706C72.2773 108.961 74.4015 109.019 76.4877 108.868C78.8291 108.706 81.136 108.268 83.3844 107.571C85.5085 106.905 87.5568 105.961 89.4603 104.788C91.4534 103.55 93.319 102.13 94.9949 100.55C96.957 98.7502 98.5673 96.626 100.188 94.5087C100.695 93.8777 101.074 93.1191 101.771 92.6122C103.229 91.5639 105.219 91.6984 106.554 92.8984C107.726 94.0053 108.071 95.7191 107.374 97.1674C106.774 98.4329 105.857 99.4743 105.033 100.55C103.547 102.485 101.929 104.285 100.157 105.961C97.8156 108.209 95.1845 110.171 92.3431 111.754C89.6189 113.271 86.712 114.44 83.7016 115.202C81.205 115.868 78.6705 116.25 76.0705 116.278C75.4704 116.306 74.898 116.499 74.3635 116.44L74.3704 116.433H74.3739Z" fill="url(#paint3_linear_2006_655)"/>
<defs>
<linearGradient id="paint0_linear_2006_655" x1="14.3316" y1="130.059" x2="115.614" y2="28.7665" gradientUnits="userSpaceOnUse">
<stop stop-color="#F8C52A"/>
<stop offset="0.03" stop-color="#F7C61C"/>
<stop offset="0.06" stop-color="#F8C711"/>
<stop offset="0.12" stop-color="#F8C70D"/>
<stop offset="0.24" stop-color="#FACD25"/>
<stop offset="0.43" stop-color="#FDD642"/>
<stop offset="0.63" stop-color="#FEDC55"/>
<stop offset="0.82" stop-color="#FFE061"/>
<stop offset="1" stop-color="#FEE066"/>
</linearGradient>
<linearGradient id="paint1_linear_2006_655" x1="16.9774" y1="88.9943" x2="45.4156" y2="72.5743" gradientUnits="userSpaceOnUse">
<stop stop-color="#F8C52A"/>
<stop offset="0.03" stop-color="#F7C61C"/>
<stop offset="0.06" stop-color="#F8C711"/>
<stop offset="0.12" stop-color="#F8C70D"/>
<stop offset="0.42" stop-color="#FBD02B"/>
<stop offset="1" stop-color="#FEE066"/>
</linearGradient>
<linearGradient id="paint2_linear_2006_655" x1="79.4731" y1="72.9691" x2="107.707" y2="56.6695" gradientUnits="userSpaceOnUse">
<stop stop-color="#F8C52A"/>
<stop offset="0.03" stop-color="#F7C61C"/>
<stop offset="0.06" stop-color="#F8C711"/>
<stop offset="0.12" stop-color="#F8C70D"/>
<stop offset="0.24" stop-color="#FACD25"/>
<stop offset="0.43" stop-color="#FDD642"/>
<stop offset="0.63" stop-color="#FEDC55"/>
<stop offset="0.82" stop-color="#FFE061"/>
<stop offset="1" stop-color="#FEE066"/>
</linearGradient>
<linearGradient id="paint3_linear_2006_655" x1="49.1786" y1="122.212" x2="96.9367" y2="94.6339" gradientUnits="userSpaceOnUse">
<stop stop-color="#F8C52A"/>
<stop offset="0.03" stop-color="#F7C61C"/>
<stop offset="0.06" stop-color="#F8C711"/>
<stop offset="0.12" stop-color="#F8C70D"/>
<stop offset="0.24" stop-color="#FACD25"/>
<stop offset="0.43" stop-color="#FDD642"/>
<stop offset="0.63" stop-color="#FEDC55"/>
<stop offset="0.82" stop-color="#FFE061"/>
<stop offset="1" stop-color="#FEE066"/>
</linearGradient>
</defs>
</svg>
