<svg width="460" height="189" viewBox="0 0 460 189" fill="none" xmlns="http://www.w3.org/2000/svg">
<g clip-path="url(#clip0_4326_4790)">
<path d="M164.213 94.2877C164.278 99.9188 163.64 105.519 162.316 110.967C161.306 114.988 159.975 118.94 158.295 122.74C155.989 127.961 153.102 132.868 149.654 137.419C148.454 139.03 147.185 140.554 145.823 142.04C144.775 143.182 143.764 144.347 142.63 145.423C139.847 148.109 136.868 150.616 133.705 152.861C126.998 157.644 119.502 161.185 111.557 163.368C108.395 164.223 105.164 164.885 101.905 165.303C100.257 165.523 98.6463 165.682 96.998 165.778C95.2566 165.875 93.4841 166.034 91.7117 165.968C89.1496 165.903 86.6151 165.778 84.053 165.492C80.9839 165.113 77.946 164.578 74.9356 163.816C65.8182 161.509 57.2146 157.423 49.6524 151.851C47.6593 150.392 45.7558 148.84 43.9558 147.164C43.042 146.309 42.0903 145.488 41.173 144.571C38.2937 141.626 35.6384 138.464 33.266 135.075C30.9246 131.75 28.9004 128.205 27.19 124.536C24.8831 119.564 23.1693 114.343 22.1313 108.998C21.6934 106.722 21.4072 104.443 21.1796 102.129C20.9589 99.6326 20.8658 97.0981 20.8934 94.5636C20.921 92.667 20.921 90.8014 21.0175 88.9324C21.1141 86.7496 21.3313 84.5979 21.6831 82.4461C22.121 79.4082 22.79 76.4047 23.6176 73.4253C26.4004 63.7734 31.2487 54.8181 37.7936 47.2249C39.3109 45.4249 40.9282 43.7111 42.6351 42.1007C45.0731 39.7593 47.6938 37.6041 50.449 35.6144C53.9284 33.1178 57.6319 30.9281 61.5285 29.0971C66.2734 26.8798 71.2079 25.1729 76.3425 24.0384C78.877 23.4384 81.4667 23.028 84.0599 22.7418C85.6426 22.5521 87.1944 22.4556 88.8048 22.3625C90.5117 22.2659 92.1876 22.2659 93.9014 22.297C96.529 22.3625 99.1877 22.5521 101.781 22.8694C106.905 23.5349 111.974 24.7349 116.871 26.4418C120.891 27.8626 124.778 29.635 128.485 31.7868C131.171 33.3385 133.771 35.0454 136.24 36.942C138.078 38.3627 139.812 39.8869 141.557 41.4007C143.043 42.7628 144.437 44.1835 145.768 45.6387C147.606 47.6663 149.313 49.8112 150.892 52.0319C153.388 55.5112 155.54 59.2458 157.378 63.139C160.827 70.5425 162.978 78.4875 163.799 86.6221C164.054 89.1842 164.209 91.7187 164.209 94.2808H164.216V94.2877H164.213ZM91.9358 152.295C107.912 152.075 121.209 146.723 132.319 136.185C143.743 125.392 150.04 112.133 150.609 96.2774C151.182 79.8254 145.895 65.5528 134.499 53.7112C123.609 42.3835 110.226 36.1454 94.4669 35.773C78.3563 35.3627 64.1147 40.4869 52.349 51.625C40.7351 62.5734 34.8212 76.3081 34.3143 92.1911C33.8074 108.074 38.904 122.029 49.88 133.612C61.4285 145.826 75.7942 151.875 91.9393 152.285L91.9324 152.292H91.9358V152.295Z" fill="url(#paint0_linear_4326_4790)"/>
<path d="M59.1837 114.198C57.3182 114.295 55.4216 114.074 53.6112 113.598C51.487 112.933 49.5629 111.826 47.9422 110.371C46.5525 109.105 45.4076 107.619 44.5214 105.971C43.6352 104.229 43.0042 102.36 42.749 100.436C41.9869 95.8808 43.2835 91.1945 46.2939 87.6806C48.856 84.6116 52.4664 82.584 56.4492 81.984C59.6768 81.4116 62.9665 81.8599 65.9459 83.2495C70.2149 85.1461 73.4425 88.822 74.8357 93.2807C76.1322 97.1394 75.846 101.381 74.1391 105.053C73.2839 106.988 72.0805 108.722 70.5666 110.178C68.2252 112.453 65.1562 113.881 61.8975 114.226C60.9458 114.226 60.0975 114.16 59.1734 114.198H59.1837ZM63.3941 97.0497C66.339 97.1463 68.5494 94.898 68.6149 91.8566C68.6804 89.96 67.7597 88.5703 66.339 87.4255C65.4838 86.6358 64.3114 86.2254 63.1458 86.3185C60.2665 86.6048 57.9527 89.5462 58.2113 92.3014C58.4665 94.9601 60.7079 97.1773 63.4045 97.0463H63.3941V97.0497Z" fill="url(#paint1_linear_4326_4790)"/>
<path d="M105.577 82.3876C105.55 78.4634 106.56 75.1737 108.681 72.2598C111.15 68.7805 114.95 66.439 119.154 65.8011C121.716 65.4218 124.347 65.6114 126.812 66.3735C129.03 67.039 131.081 68.2391 132.757 69.8218C135.637 72.5081 137.188 75.8323 137.692 79.691C138.292 84.6255 137.254 89.1221 133.988 92.9808C131.454 96.0498 127.816 98.0119 123.861 98.4568C119.495 99.0292 115.478 98.0464 111.96 95.3533C108.605 92.8187 106.36 89.0842 105.691 84.9393C105.626 84.1186 105.567 83.2324 105.567 82.3772L105.574 82.3841H105.577V82.3876ZM125.992 70.5563C123.398 70.5563 121.495 71.946 120.743 74.2909C120.078 76.5668 121.057 79.2254 123.019 80.2737C124.857 81.3496 127.133 81.3496 128.964 80.2737C130.957 79.1979 132.068 76.4426 131.336 74.3564C130.547 72.1081 128.392 70.5943 125.992 70.5563Z" fill="url(#paint2_linear_4326_4790)"/>
<path d="M94.3739 138.433C90.0083 138.368 85.6737 137.709 81.4944 136.471C79.0564 135.747 76.684 134.795 74.4356 133.65C73.5218 133.24 72.7873 132.478 72.4425 131.526C71.5563 129.057 73.2322 126.495 75.7977 126.468C76.5874 126.468 77.3805 126.688 78.0736 127.068C79.084 127.574 80.1599 127.981 81.2082 128.43C84.0875 129.571 87.0944 130.326 90.191 130.706C92.2773 130.961 94.4015 131.019 96.4877 130.868C98.8291 130.706 101.136 130.268 103.384 129.571C105.509 128.905 107.557 127.961 109.46 126.788C111.453 125.55 113.319 124.13 114.995 122.55C116.957 120.75 118.567 118.626 120.188 116.509C120.695 115.878 121.074 115.119 121.771 114.612C123.229 113.564 125.219 113.698 126.554 114.898C127.726 116.005 128.071 117.719 127.374 119.167C126.774 120.433 125.857 121.474 125.033 122.55C123.547 124.485 121.929 126.285 120.157 127.961C117.816 130.209 115.185 132.171 112.343 133.754C109.619 135.271 106.712 136.44 103.702 137.202C101.205 137.868 98.6705 138.25 96.0705 138.278C95.4704 138.306 94.898 138.499 94.3635 138.44L94.3704 138.433H94.3739Z" fill="url(#paint3_linear_4326_4790)"/>
<path d="M193.924 144.481C191.444 143.468 189.465 141.964 187.982 139.971C186.499 137.981 185.717 135.585 185.637 132.781H196.727C196.889 134.364 197.437 135.574 198.372 136.406C199.306 137.24 200.524 137.654 202.027 137.654C203.531 137.654 204.789 137.299 205.682 136.588C206.575 135.878 207.024 134.892 207.024 133.633C207.024 132.578 206.669 131.705 205.958 131.012C205.248 130.323 204.375 129.754 203.337 129.305C202.303 128.861 200.827 128.35 198.92 127.781C196.158 126.929 193.903 126.074 192.155 125.223C190.406 124.371 188.903 123.112 187.644 121.443C186.385 119.778 185.754 117.605 185.754 114.922C185.754 110.943 187.196 107.822 190.082 105.571C192.965 103.315 196.724 102.188 201.355 102.188C205.986 102.188 209.865 103.315 212.748 105.571C215.631 107.826 217.176 110.964 217.379 114.984H206.106C206.024 113.605 205.517 112.515 204.582 111.726C203.648 110.933 202.451 110.536 200.986 110.536C199.727 110.536 198.71 110.871 197.937 111.543C197.165 112.212 196.779 113.178 196.779 114.436C196.779 115.819 197.427 116.895 198.73 117.667C200.031 118.44 202.062 119.274 204.824 120.167C207.586 121.102 209.831 121.995 211.558 122.85C213.286 123.702 214.776 124.943 216.038 126.567C217.296 128.192 217.927 130.285 217.927 132.843C217.927 135.402 217.307 137.495 216.069 139.485C214.831 141.475 213.031 143.061 210.676 144.237C208.32 145.416 205.537 146.002 202.327 146.002C199.117 146.002 196.396 145.495 193.917 144.478L193.924 144.481Z" fill="#2B2F68"/>
<path d="M224.424 119.316C225.865 116.674 227.876 114.643 230.455 113.222C233.035 111.802 235.99 111.091 239.321 111.091C243.586 111.091 247.152 112.209 250.014 114.443C252.88 116.678 254.756 119.826 255.652 123.888H244.562C243.628 121.288 241.821 119.988 239.138 119.988C237.228 119.988 235.704 120.729 234.569 122.212C233.431 123.695 232.862 125.819 232.862 128.581C232.862 131.343 233.431 133.468 234.569 134.95C235.707 136.433 237.228 137.174 239.138 137.174C241.821 137.174 243.628 135.874 244.562 133.274H255.652C254.759 137.257 252.869 140.385 249.986 142.657C247.1 144.933 243.548 146.071 239.324 146.071C235.993 146.071 233.038 145.361 230.459 143.937C227.879 142.516 225.869 140.485 224.427 137.843C222.986 135.202 222.265 132.116 222.265 128.581C222.265 125.047 222.986 121.96 224.427 119.319L224.424 119.316Z" fill="#2B2F68"/>
<path d="M267.687 143.933C265.025 142.512 262.935 140.481 261.411 137.84C259.887 135.199 259.125 132.112 259.125 128.578C259.125 125.043 259.897 122.009 261.442 119.347C262.987 116.688 265.097 114.647 267.78 113.222C270.463 111.802 273.466 111.091 276.797 111.091C280.128 111.091 283.135 111.802 285.815 113.222C288.497 114.643 290.608 116.684 292.153 119.347C293.697 122.009 294.466 125.085 294.466 128.578C294.466 132.071 293.684 135.15 292.122 137.809C290.556 140.471 288.425 142.512 285.725 143.933C283.021 145.354 280.008 146.068 276.676 146.068C273.345 146.068 270.349 145.357 267.69 143.933H267.687ZM281.763 134.854C283.163 133.392 283.866 131.299 283.866 128.578C283.866 125.857 283.187 123.764 281.825 122.302C280.463 120.84 278.787 120.109 276.797 120.109C274.808 120.109 273.08 120.829 271.738 122.271C270.397 123.712 269.728 125.816 269.728 128.578C269.728 131.34 270.387 133.392 271.707 134.854C273.028 136.316 274.683 137.047 276.673 137.047C278.663 137.047 280.359 136.316 281.763 134.854Z" fill="#2B2F68"/>
<path d="M310.432 100.484V145.578H300.011V100.484H310.432Z" fill="#2B2F68"/>
<path d="M317.898 119.316C319.219 116.674 321.015 114.643 323.291 113.222C325.567 111.802 328.105 111.091 330.908 111.091C333.305 111.091 335.405 111.578 337.215 112.553C339.022 113.529 340.415 114.809 341.388 116.391V111.578H351.809V145.578H341.388V140.764C340.371 142.347 338.96 143.63 337.153 144.602C335.346 145.578 333.243 146.064 330.846 146.064C328.084 146.064 325.563 145.344 323.291 143.902C321.015 142.461 319.219 140.409 317.898 137.747C316.577 135.088 315.918 132.009 315.918 128.516C315.918 125.023 316.577 121.957 317.898 119.316ZM339.226 122.423C337.784 120.919 336.026 120.167 333.953 120.167C331.881 120.167 330.122 120.909 328.681 122.391C327.239 123.874 326.519 125.916 326.519 128.516C326.519 131.116 327.239 133.178 328.681 134.702C330.122 136.226 331.881 136.988 333.953 136.988C336.026 136.988 337.781 136.237 339.226 134.733C340.667 133.23 341.388 131.178 341.388 128.578C341.388 125.978 340.667 123.926 339.226 122.423Z" fill="#2B2F68"/>
<path d="M360.122 106.426C358.964 105.35 358.385 104.019 358.385 102.436C358.385 100.853 358.964 99.4602 360.122 98.3843C361.281 97.3084 362.774 96.7705 364.602 96.7705C366.429 96.7705 367.861 97.3084 369.019 98.3843C370.178 99.4602 370.757 100.812 370.757 102.436C370.757 104.06 370.178 105.35 369.019 106.426C367.861 107.502 366.388 108.04 364.602 108.04C362.816 108.04 361.281 107.502 360.122 106.426ZM369.781 111.574V145.575H359.36V111.574H369.781Z" fill="#2B2F68"/>
<path d="M392.33 112.826C394.158 111.75 396.189 111.212 398.423 111.212V122.24H395.558C392.958 122.24 391.006 122.799 389.709 123.916C388.409 125.033 387.761 126.992 387.761 129.795V145.578H377.34V111.578H387.761V117.243C388.978 115.374 390.502 113.902 392.33 112.826Z" fill="#2B2F68"/>
<path d="M435.286 131.074H411.703C411.865 133.188 412.544 134.802 413.744 135.919C414.941 137.037 416.417 137.595 418.161 137.595C420.761 137.595 422.568 136.499 423.586 134.305H434.675C434.106 136.54 433.082 138.55 431.599 140.337C430.117 142.126 428.258 143.526 426.024 144.54C423.789 145.557 421.289 146.064 418.527 146.064C415.196 146.064 412.23 145.354 409.63 143.93C407.03 142.509 404.999 140.478 403.537 137.837C402.075 135.195 401.344 132.109 401.344 128.574C401.344 125.04 402.065 121.954 403.506 119.312C404.947 116.671 406.968 114.64 409.568 113.219C412.168 111.798 415.154 111.088 418.527 111.088C421.899 111.088 424.741 111.778 427.303 113.16C429.862 114.543 431.862 116.512 433.306 119.071C434.748 121.629 435.469 124.616 435.469 128.03C435.469 129.005 435.406 130.019 435.286 131.078V131.074ZM424.806 125.285C424.806 123.498 424.196 122.078 422.979 121.019C421.761 119.964 420.237 119.436 418.41 119.436C416.582 119.436 415.189 119.943 413.992 120.96C412.792 121.978 412.051 123.419 411.768 125.288H424.81L424.806 125.285Z" fill="#2B2F68"/>
<path d="M225.731 42.7041V80.246H218.2V55.8284L208.141 80.246H202.441L192.33 55.8284V80.246H184.799V42.7041H193.351L205.293 70.6183L217.231 42.7041H225.728H225.731Z" fill="#2B2F68"/>
<path d="M259.1 59.9699C258.149 61.7285 256.662 63.1423 254.635 64.2182C252.607 65.2941 250.055 65.832 246.969 65.832H240.676V80.246H233.145V42.7041H246.966C249.869 42.7041 252.345 43.2076 254.386 44.211C256.431 45.2145 257.962 46.5973 258.983 48.3525C260.004 50.1111 260.518 52.1008 260.518 54.3215C260.518 56.3284 260.042 58.2112 259.093 59.9699H259.1ZM251.276 58.3285C252.28 57.3802 252.783 56.0422 252.783 54.3215C252.783 50.6628 250.738 48.8352 246.652 48.8352H240.683V59.7526H246.652C248.731 59.7526 250.273 59.2768 251.276 58.3285Z" fill="#2B2F68"/>
<path d="M291.801 59.9699C290.849 61.7285 289.363 63.1423 287.335 64.2182C285.308 65.2941 282.756 65.832 279.67 65.832H273.377V80.246H265.845V42.7041H279.666C282.57 42.7041 285.046 43.2076 287.087 44.211C289.132 45.2145 290.663 46.5973 291.687 48.3525C292.708 50.1111 293.222 52.1008 293.222 54.3215C293.222 56.3284 292.746 58.2112 291.798 59.9699H291.801ZM283.977 58.3285C284.98 57.3802 285.484 56.0422 285.484 54.3215C285.484 50.6628 283.439 48.8352 279.353 48.8352H273.383V59.7526H279.353C281.432 59.7526 282.973 59.2768 283.977 58.3285Z" fill="#2B2F68"/>
</g>
<defs>
<linearGradient id="paint0_linear_4326_4790" x1="34.3316" y1="152.059" x2="135.614" y2="50.7665" gradientUnits="userSpaceOnUse">
<stop stop-color="#F8C52A"/>
<stop offset="0.03" stop-color="#F7C61C"/>
<stop offset="0.06" stop-color="#F8C711"/>
<stop offset="0.12" stop-color="#F8C70D"/>
<stop offset="0.24" stop-color="#FACD25"/>
<stop offset="0.43" stop-color="#FDD642"/>
<stop offset="0.63" stop-color="#FEDC55"/>
<stop offset="0.82" stop-color="#FFE061"/>
<stop offset="1" stop-color="#FEE066"/>
</linearGradient>
<linearGradient id="paint1_linear_4326_4790" x1="36.9774" y1="110.994" x2="65.4156" y2="94.5743" gradientUnits="userSpaceOnUse">
<stop stop-color="#F8C52A"/>
<stop offset="0.03" stop-color="#F7C61C"/>
<stop offset="0.06" stop-color="#F8C711"/>
<stop offset="0.12" stop-color="#F8C70D"/>
<stop offset="0.42" stop-color="#FBD02B"/>
<stop offset="1" stop-color="#FEE066"/>
</linearGradient>
<linearGradient id="paint2_linear_4326_4790" x1="99.4731" y1="94.9691" x2="127.707" y2="78.6695" gradientUnits="userSpaceOnUse">
<stop stop-color="#F8C52A"/>
<stop offset="0.03" stop-color="#F7C61C"/>
<stop offset="0.06" stop-color="#F8C711"/>
<stop offset="0.12" stop-color="#F8C70D"/>
<stop offset="0.24" stop-color="#FACD25"/>
<stop offset="0.43" stop-color="#FDD642"/>
<stop offset="0.63" stop-color="#FEDC55"/>
<stop offset="0.82" stop-color="#FFE061"/>
<stop offset="1" stop-color="#FEE066"/>
</linearGradient>
<linearGradient id="paint3_linear_4326_4790" x1="69.1786" y1="144.212" x2="116.937" y2="116.634" gradientUnits="userSpaceOnUse">
<stop stop-color="#F8C52A"/>
<stop offset="0.03" stop-color="#F7C61C"/>
<stop offset="0.06" stop-color="#F8C711"/>
<stop offset="0.12" stop-color="#F8C70D"/>
<stop offset="0.24" stop-color="#FACD25"/>
<stop offset="0.43" stop-color="#FDD642"/>
<stop offset="0.63" stop-color="#FEDC55"/>
<stop offset="0.82" stop-color="#FFE061"/>
<stop offset="1" stop-color="#FEE066"/>
</linearGradient>
<clipPath id="clip0_4326_4790">
<rect width="460" height="188.079" fill="white"/>
</clipPath>
</defs>
</svg>
