<svg width="20" height="21" viewBox="0 0 20 21" fill="none" xmlns="http://www.w3.org/2000/svg">
<path d="M10 20.5C4.48576 20.5 0 16.0142 0 10.5C0 4.98576 4.48576 0.5 10 0.5C15.5142 0.5 20 4.98576 20 10.5C20 16.0142 15.5142 20.5 10 20.5ZM10 1.83333C5.22176 1.83333 1.33333 5.72176 1.33333 10.5C1.33333 15.2782 5.22176 19.1667 10 19.1667C14.7782 19.1667 18.6667 15.2782 18.6667 10.5C18.6667 5.72176 14.7782 1.83333 10 1.83333ZM9.13833 13.6383L15.1383 7.63835C15.3992 7.3775 15.3992 6.95668 15.1383 6.69584C14.8775 6.435 14.4567 6.435 14.1958 6.69584L8.6675 12.2242L6.47251 10.0292C6.21167 9.76833 5.79085 9.76833 5.53001 10.0292C5.26916 10.29 5.26916 10.7108 5.53001 10.9717L8.19667 13.6383C8.32667 13.7683 8.49751 13.8333 8.66833 13.8333C8.83916 13.8333 9.01001 13.7683 9.13999 13.6383H9.13833Z" fill="white"/>
</svg>
