<svg width="20" height="21" viewBox="0 0 20 21" fill="current" xmlns="http://www.w3.org/2000/svg">
<path d="M10.0834 15.6278C10.3056 15.6278 10.4931 15.5514 10.6459 15.3986C10.7987 15.2459 10.8751 15.0584 10.8751 14.8361C10.8751 14.6139 10.7987 14.4264 10.6459 14.2736C10.4931 14.1209 10.3056 14.0445 10.0834 14.0445C9.86119 14.0445 9.67369 14.1209 9.52091 14.2736C9.36814 14.4264 9.29175 14.6139 9.29175 14.8361C9.29175 15.0584 9.36814 15.2459 9.52091 15.3986C9.67369 15.5514 9.86119 15.6278 10.0834 15.6278ZM10.0626 7.02364C10.5348 7.02364 10.9167 7.15211 11.2084 7.40906C11.5001 7.666 11.6459 7.99586 11.6459 8.39864C11.6459 8.67642 11.5626 8.95072 11.3959 9.22156C11.2292 9.49239 10.9584 9.78753 10.5834 10.107C10.2223 10.4264 9.93411 10.7632 9.71883 11.1174C9.50355 11.4716 9.39591 11.7945 9.39591 12.0861C9.39591 12.2389 9.45494 12.3604 9.573 12.4507C9.69105 12.541 9.82647 12.5861 9.97925 12.5861C10.1459 12.5861 10.2848 12.5306 10.3959 12.4195C10.507 12.3084 10.5765 12.1695 10.6042 12.0028C10.6459 11.725 10.7397 11.4785 10.8855 11.2632C11.0313 11.0479 11.257 10.8153 11.5626 10.5653C11.9792 10.2181 12.2813 9.87086 12.4688 9.52364C12.6563 9.17642 12.7501 8.78753 12.7501 8.35697C12.7501 7.62086 12.5105 7.03059 12.0313 6.58614C11.5522 6.1417 10.9167 5.91947 10.1251 5.91947C9.5973 5.91947 9.11119 6.02364 8.66675 6.23197C8.2223 6.44031 7.85425 6.74586 7.56258 7.14864C7.45147 7.30142 7.40633 7.45767 7.42717 7.61739C7.448 7.77711 7.51397 7.89864 7.62508 7.98197C7.77786 8.09308 7.94105 8.12781 8.11466 8.08614C8.28828 8.04447 8.43064 7.94725 8.54175 7.79447C8.7223 7.54447 8.94105 7.3535 9.198 7.22156C9.45494 7.08961 9.74314 7.02364 10.0626 7.02364ZM10.0001 19.107C8.83341 19.107 7.74314 18.8952 6.72925 18.4716C5.71536 18.0479 4.83341 17.4611 4.08341 16.7111C3.33341 15.9611 2.74314 15.0792 2.31258 14.0653C1.88203 13.0514 1.66675 11.9542 1.66675 10.7736C1.66675 9.60697 1.88203 8.5167 2.31258 7.50281C2.74314 6.48892 3.33341 5.60697 4.08341 4.85697C4.83341 4.10697 5.71536 3.5167 6.72925 3.08614C7.74314 2.65559 8.83341 2.44031 10.0001 2.44031C11.1529 2.44031 12.2362 2.65559 13.2501 3.08614C14.264 3.5167 15.1459 4.10697 15.8959 4.85697C16.6459 5.60697 17.2397 6.48892 17.6772 7.50281C18.1147 8.5167 18.3334 9.60697 18.3334 10.7736C18.3334 11.9542 18.1147 13.0514 17.6772 14.0653C17.2397 15.0792 16.6459 15.9611 15.8959 16.7111C15.1459 17.4611 14.264 18.0479 13.2501 18.4716C12.2362 18.8952 11.1529 19.107 10.0001 19.107Z" />
</svg>
