<svg width="30" height="30" viewBox="0 0 30 30" fill="none" xmlns="http://www.w3.org/2000/svg">
  <path d="M15 3C12.6266 3 10.3066 3.70378 8.33317 5.02236C6.35978 6.34093 4.82171 8.21508 3.91345 10.4078C3.0052 12.6005 2.76756 15.0133 3.23058 17.3411C3.6936 19.6688 4.83649 21.807 6.51471 23.4853C8.19294 25.1635 10.3311 26.3064 12.6589 26.7694C14.9867 27.2324 17.3995 26.9948 19.5922 26.0866C21.7849 25.1783 23.659 23.6402 24.9776 21.6669C26.2962 19.6935 27 17.3734 27 15C27 13.4242 26.6896 11.8637 26.0866 10.4078C25.4835 8.9519 24.5996 7.62903 23.4853 6.51473C22.371 5.40042 21.0481 4.51651 19.5922 3.91345C18.1363 3.31039 16.5759 3 15 3ZM15 24.8836C13.0452 24.8836 11.1343 24.304 9.50895 23.2179C7.8836 22.1319 6.61679 20.5883 5.86872 18.7823C5.12065 16.9763 4.92492 14.989 5.30628 13.0718C5.68764 11.1546 6.62897 9.39346 8.01122 8.01121C9.39347 6.62896 11.1546 5.68763 13.0718 5.30627C14.989 4.92491 16.9763 5.12064 18.7823 5.86871C20.5883 6.61678 22.1319 7.88359 23.2179 9.50895C24.304 11.1343 24.8836 13.0452 24.8836 15C24.8807 17.6204 23.8384 20.1326 21.9855 21.9855C20.1326 23.8384 17.6204 24.8807 15 24.8836Z" fill="currentColor"/>
  <path d="M19.9286 10.3154C19.3988 10.3154 18.8809 10.4725 18.4405 10.7669C18 11.0612 17.6566 11.4795 17.4539 11.969C17.2512 12.4584 17.1981 12.997 17.3015 13.5166C17.4048 14.0362 17.6599 14.5135 18.0346 14.8881C18.4092 15.2627 18.8864 15.5178 19.406 15.6212C19.9256 15.7245 20.4642 15.6715 20.9537 15.4688C21.4431 15.266 21.8615 14.9227 22.1558 14.4822C22.4501 14.0417 22.6072 13.5238 22.6072 12.994C22.6072 12.2836 22.325 11.6023 21.8227 11.1C21.3203 10.5976 20.639 10.3154 19.9286 10.3154ZM20.6501 12.938C20.4502 12.938 20.2547 12.8787 20.0885 12.7677C19.9222 12.6566 19.7927 12.4987 19.7162 12.314C19.6396 12.1292 19.6196 11.926 19.6586 11.7299C19.6976 11.5338 19.7939 11.3536 19.9353 11.2123C20.0767 11.0709 20.2568 10.9746 20.4529 10.9356C20.649 10.8966 20.8523 10.9166 21.037 10.9931C21.2217 11.0696 21.3796 11.1992 21.4907 11.3655C21.6018 11.5317 21.6611 11.7272 21.6611 11.9271C21.6611 12.0599 21.6349 12.1913 21.5841 12.314C21.5333 12.4366 21.4589 12.5481 21.365 12.6419C21.2711 12.7358 21.1597 12.8103 21.037 12.8611C20.9144 12.9119 20.7829 12.938 20.6501 12.938Z" fill="currentColor" />
  <path d="M9.38174 12.9971C8.85196 12.9971 8.33408 13.1542 7.89358 13.4485C7.45308 13.7428 7.10976 14.1612 6.90702 14.6506C6.70428 15.1401 6.65124 15.6787 6.7546 16.1983C6.85795 16.7179 7.11307 17.1951 7.48768 17.5698C7.86229 17.9444 8.33958 18.1995 8.85918 18.3028C9.37878 18.4062 9.91736 18.3531 10.4068 18.1504C10.8963 17.9477 11.3146 17.6043 11.6089 17.1638C11.9033 16.7233 12.0604 16.2054 12.0603 15.6757C12.0603 14.9653 11.7781 14.2839 11.2758 13.7816C10.7735 13.2793 10.0921 12.9971 9.38174 12.9971ZM10.1033 15.6197C9.90332 15.6197 9.70787 15.5604 9.54162 15.4493C9.37538 15.3382 9.2458 15.1803 9.16929 14.9956C9.09277 14.8109 9.07275 14.6076 9.11176 14.4115C9.15077 14.2154 9.24705 14.0353 9.38843 13.8939C9.52981 13.7525 9.70994 13.6562 9.90604 13.6172C10.1021 13.5782 10.3054 13.5982 10.4901 13.6748C10.6749 13.7513 10.8327 13.8809 10.9438 14.0471C11.0549 14.2133 11.1142 14.4088 11.1142 14.6087C11.1142 14.7415 11.0881 14.873 11.0373 14.9956C10.9864 15.1183 10.912 15.2297 10.8181 15.3236C10.7242 15.4175 10.6128 15.4919 10.4901 15.5427C10.3675 15.5935 10.236 15.6197 10.1033 15.6197Z" fill="currentColor" />
</svg>