<svg viewBox="0 0 390 499" fill="none" xmlns="http://www.w3.org/2000/svg">
<path d="M396.38 -1.58154L-59.8769 -1.58154C-59.8769 -1.58154 -127.108 320.374 -21.6834 438.004C83.7413 555.634 345.485 471.008 396.38 438.004C447.275 405 396.38 -1.58154 396.38 -1.58154Z" fill="url(#paint0_linear_4693_6119)"/>
<path d="M333.976 414.251C333.976 417.774 331.77 420.003 329.738 420.003C327.706 420.003 325.5 417.774 325.5 414.251C325.5 410.729 327.706 408.5 329.738 408.5C331.77 408.5 333.976 410.729 333.976 414.251Z" stroke="#B42FF5" stroke-width="3"/>
<rect width="1.58672" height="10.5511" rx="0.79336" transform="matrix(-0.258295 0.966066 -0.919658 -0.392719 78.1313 75.2061)" fill="#96D7E4" fill-opacity="0.8"/>
<path d="M35.6806 34.5595C35.6806 37.0831 34.041 38.6189 32.5903 38.6189C31.1396 38.6189 29.5 37.0831 29.5 34.5595C29.5 32.0358 31.1396 30.5 32.5903 30.5C34.041 30.5 35.6806 32.0358 35.6806 34.5595Z" stroke="#96D7E4" stroke-opacity="0.8" stroke-width="3"/>
<rect width="1.29038" height="12.8799" rx="0.645189" transform="matrix(0.978966 0.204025 -0.129391 0.991594 50.3965 362)" fill="#B42FF5"/>
<rect width="1.60999" height="10.323" rx="0.804995" transform="matrix(0.129391 -0.991594 0.978966 0.204025 45 368.306)" fill="#B42FF5"/>
<rect width="1.29038" height="12.8799" rx="0.645189" transform="matrix(0.978966 0.204025 -0.129391 0.991594 330.396 22)" fill="#96D7E4" fill-opacity="0.8"/>
<rect width="1.60999" height="10.323" rx="0.804995" transform="matrix(0.129391 -0.991594 0.978966 0.204025 325 28.3057)" fill="#96D7E4" fill-opacity="0.8"/>
<rect width="1.58667" height="10.5516" rx="0.793336" transform="matrix(0.258496 0.966012 -0.91954 0.392996 352.703 318)" fill="#B42FF5"/>
<defs>
<linearGradient id="paint0_linear_4693_6119" x1="187.518" y1="387.199" x2="185.74" y2="-1.57806" gradientUnits="userSpaceOnUse">
<stop stop-color="#CFEEF4" stop-opacity="0.6"/>
<stop offset="1" stop-color="#B42FF5" stop-opacity="0.85"/>
</linearGradient>
</defs>
</svg>
