<svg viewBox="0 0 768 900" fill="none" xmlns="http://www.w3.org/2000/svg" preserveAspectRatio="none">
<path d="M-3 910.584L-3.00004 -25.6553C-3.00004 -25.6553 493.456 -163.614 674.842 52.7177C856.227 269.049 725.734 806.148 674.842 910.584C623.949 1015.02 -3 910.584 -3 910.584Z" fill="url(#paint0_linear_4428_4761)"/>
<circle cx="596" cy="669" r="13.5" stroke="#B42FF5" stroke-width="3"/>
<rect x="510.364" y="88" width="3.34695" height="26.7756" rx="1.67347" transform="rotate(71.3156 510.364 88)" fill="#B42FF5"/>
<rect x="219.438" y="750.571" width="3.34695" height="26.7756" rx="1.67347" transform="rotate(108.67 219.438 750.571)" fill="#96D7E4" fill-opacity="0.8"/>
<rect x="105.107" y="396" width="3.34695" height="26.7756" rx="1.67347" transform="rotate(9.36429 105.107 396)" fill="#96D7E4" fill-opacity="0.8"/>
<rect x="91" y="409.044" width="3.34695" height="26.7756" rx="1.67347" transform="rotate(-80.6357 91 409.044)" fill="#96D7E4" fill-opacity="0.8"/>
<rect x="664.107" y="244" width="3.34695" height="26.7756" rx="1.67347" transform="rotate(9.36429 664.107 244)" fill="#B42FF5"/>
<rect x="650" y="257.044" width="3.34695" height="26.7756" rx="1.67347" transform="rotate(-80.6357 650 257.044)" fill="#B42FF5"/>
<path d="M222.5 197.5C222.5 202.963 217.86 207.5 212 207.5C206.14 207.5 201.5 202.963 201.5 197.5C201.5 192.037 206.14 187.5 212 187.5C217.86 187.5 222.5 192.037 222.5 197.5Z" stroke="#96D7E4" stroke-opacity="0.8" stroke-width="3"/>
<defs>
<linearGradient id="paint0_linear_4428_4761" x1="596.5" y1="482" x2="-3.0001" y2="479.94" gradientUnits="userSpaceOnUse">
<stop stop-color="#CFEEF4" stop-opacity="0.6"/>
<stop offset="1" stop-color="#B42FF5" stop-opacity="0.85"/>
</linearGradient>
</defs>
</svg>
