<svg width="20" height="20" viewBox="0 0 20 20" fill="none" xmlns="http://www.w3.org/2000/svg">
<path d="M10 0C7.3474 0 4.8044 1.05265 2.92912 2.92912C1.05273 4.8044 0 7.34743 0 10C0 12.6526 1.05265 15.1956 2.92912 17.0709C4.8044 18.9473 7.34743 20 10 20C12.6526 20 15.1956 18.9473 17.0709 17.0709C18.9473 15.1956 20 12.6526 20 10C19.9978 7.3485 18.9429 4.80639 17.0678 2.93223C15.1936 1.05695 12.6514 0.00198143 10 0ZM10 18.5847C7.72333 18.5847 5.53952 17.6803 3.92974 16.0703C2.31997 14.4604 1.41536 12.2767 1.41536 10.0001C1.41536 7.72342 2.31983 5.5396 3.92974 3.92983C5.53966 2.32006 7.72333 1.41545 10 1.41545C12.2767 1.41545 14.4605 2.31991 16.0703 3.92983C17.68 5.53974 18.5846 7.72342 18.5846 10.0001C18.5824 12.2756 17.6769 14.4583 16.0669 16.0672C14.4581 17.6771 12.2755 18.5825 10 18.5847Z" fill="#2C2C69"/>
<path d="M13.7093 9.29102H6.28773C5.89631 9.29102 5.58008 9.60836 5.58008 9.99867C5.58008 10.389 5.89631 10.7063 6.28773 10.7063H13.7093C14.1007 10.7063 14.417 10.389 14.417 9.99867C14.417 9.60836 14.1007 9.29102 13.7093 9.29102Z" fill="#2C2C69"/>
<path d="M9.99867 5.58009C9.8107 5.57898 9.63047 5.65307 9.4978 5.78686C9.36511 5.91954 9.28992 6.09978 9.29103 6.28774V13.7093C9.29103 14.1007 9.60837 14.417 9.99868 14.417C10.389 14.417 10.7063 14.1007 10.7063 13.7093V6.28774C10.7074 6.09977 10.6323 5.91953 10.4996 5.78686C10.3669 5.65307 10.1866 5.57898 9.99867 5.58009Z" fill="#2C2C69"/>
</svg>
