<svg width="11" height="8" viewBox="0 0 11 8" fill="none" xmlns="http://www.w3.org/2000/svg">
<path d="M10.3899 4.00176C10.3899 3.5182 9.99861 3.12688 9.51504 3.12688L3.09779 3.12688L4.72111 1.50356C5.062 1.16266 5.06201 0.609039 4.72111 0.265561C4.38021 -0.075337 3.82658 -0.075337 3.48311 0.265561L0.368966 3.3797C0.195527 3.55314 0.110088 3.77869 0.110088 4.0017C0.110088 4.22471 0.195525 4.45025 0.366407 4.62026L3.48055 7.7344C3.82144 8.0753 4.37507 8.0753 4.71855 7.7344C5.05945 7.39351 5.05945 6.83988 4.71855 6.4964L3.09779 4.87651L9.51504 4.87651C9.99861 4.87651 10.3899 4.48533 10.3899 4.00176Z" fill="#2C2C69"/>
</svg>
