<svg width="15" height="9" viewBox="0 0 15 9" fill="none" xmlns="http://www.w3.org/2000/svg">
<path d="M14.4482 1.17871C14.4391 1.30245 14.4087 1.42398 14.3584 1.53516C14.3089 1.6445 14.2401 1.74236 14.1562 1.82324L7.85449 8.20996C7.75616 8.31017 7.63739 8.38294 7.50781 8.4209L7.375 8.44727L7.37402 8.44727C7.25945 8.45873 7.14435 8.44275 7.03613 8.40137C6.92816 8.36006 6.83007 8.29452 6.74707 8.20996L0.445312 1.82422L0.446289 1.82324C0.362186 1.74228 0.292756 1.64472 0.243164 1.53516C0.192886 1.42398 0.162437 1.30245 0.15332 1.17871C0.14422 1.05503 0.156467 0.930161 0.189453 0.811523C0.22247 0.69282 0.276101 0.581674 0.347656 0.485351C0.419234 0.389005 0.508075 0.308807 0.609375 0.250976C0.710765 0.193118 0.82251 0.15938 0.9375 0.152343C1.05239 0.14533 1.1667 0.16549 1.27344 0.210937C1.3802 0.256462 1.47718 0.326225 1.55762 0.414062L7.30078 6.23242L13.0479 0.410156L13.0488 0.410156C13.1285 0.324292 13.2231 0.255738 13.3281 0.210937C13.4349 0.165489 13.5492 0.145332 13.6641 0.152344C13.779 0.15938 13.8908 0.193122 13.9922 0.250977C14.0935 0.308806 14.1823 0.38901 14.2539 0.485352C14.3255 0.581682 14.3791 0.692829 14.4121 0.811523C14.4451 0.930171 14.4573 1.05504 14.4482 1.17871Z" fill="white" stroke="white" stroke-width="0.3"/>
</svg>
