<svg width="34" height="34" viewBox="0 0 34 34" fill="none" xmlns="http://www.w3.org/2000/svg">
<g clip-path="url(#clip0_4331_4062)">
<path d="M9.28399 13.3132H9.55767C10.6113 13.3132 11.4734 14.1753 11.4734 15.229V24.8078C11.4734 25.8615 10.6113 26.7236 9.55767 26.7236H9.28399C8.23032 26.7236 7.36823 25.8615 7.36823 24.8078V15.229C7.36823 14.1753 8.23032 13.3132 9.28399 13.3132ZM16.947 7.56592C18.0007 7.56592 18.8628 8.42801 18.8628 9.48168V24.8078C18.8628 25.8615 18.0007 26.7236 16.947 26.7236C15.8934 26.7236 15.0313 25.8615 15.0313 24.8078V9.48168C15.0313 8.42801 15.8934 7.56592 16.947 7.56592ZM24.6101 18.5131C25.6638 18.5131 26.5259 19.3752 26.5259 20.4289V24.8078C26.5259 25.8615 25.6638 26.7236 24.6101 26.7236C23.5564 26.7236 22.6943 25.8615 22.6943 24.8078V20.4289C22.6943 19.3752 23.5564 18.5131 24.6101 18.5131Z"/>
</g>
<defs>
<clipPath id="clip0_4331_4062">
<rect width="32.8417" height="32.8417" transform="translate(0.526367 0.724121)"/>
</clipPath>
</defs>
</svg>
