<svg width="40" height="20" viewBox="0 0 40 20" fill="none" xmlns="http://www.w3.org/2000/svg">
<path d="M32.2312 19.9996H6.20432C2.78403 19.9996 0 17.2627 0 13.9004C0 10.5381 2.78417 7.80117 6.20432 7.80117C7.03687 7.80117 7.85138 7.96398 8.60822 8.2793C9.44257 3.55943 13.6431 0 18.6023 0C22.6875 0 26.3115 2.37705 27.9118 6.00667C29.1858 5.16518 30.6851 4.70934 32.2295 4.70934C36.5148 4.70934 40 8.13864 40 12.3547C40.0018 16.5706 36.5147 19.9996 32.2312 19.9996ZM6.20432 9.17176C3.57875 9.17176 1.44163 11.2934 1.44163 13.9C1.44163 16.5065 3.57884 18.6282 6.20432 18.6282H32.2294C35.7199 18.6282 38.5582 15.8124 38.5582 12.3539C38.5582 8.89374 35.72 6.07959 32.2294 6.07959C30.6994 6.07959 29.22 6.63313 28.0631 7.64085C27.8811 7.80024 27.6252 7.85679 27.3891 7.79681C27.1512 7.73512 26.962 7.56202 26.8882 7.3375C25.7205 3.76768 22.3903 1.36988 18.6024 1.36988C14.0396 1.36988 10.2266 4.90373 9.92027 9.4127C9.90405 9.65777 9.74908 9.87714 9.51842 9.98511C9.28595 10.0948 9.01023 10.0742 8.7958 9.93541C8.02272 9.435 7.12711 9.17106 6.20446 9.17106L6.20432 9.17176Z" fill="currentColor"/>
</svg>
