<svg viewBox="0 0 19 17" fill="none" xmlns="http://www.w3.org/2000/svg">
<path fill-rule="evenodd" clip-rule="evenodd" d="M15.048 0H3.952C1.767 0 0 1.76399 0 3.94526V9.46483C0 11.6651 1.767 13.4291 3.971 13.4291C4.522 13.4291 4.959 13.8653 4.959 14.4154V16.2173C4.959 16.9191 5.814 17.2605 6.308 16.7673L9.196 13.9032C9.5 13.5998 9.899 13.448 10.317 13.448H15.048C17.233 13.448 19 11.684 19 9.50276V3.94526C19 1.76399 17.233 0 15.048 0ZM5.548 7.89052C4.902 7.89052 4.351 7.35942 4.351 6.71453C4.351 6.06963 4.883 5.53854 5.548 5.53854C6.194 5.53854 6.726 6.06963 6.726 6.71453C6.726 7.35942 6.194 7.89052 5.548 7.89052ZM9.5 7.89052C8.854 7.89052 8.303 7.35942 8.303 6.71453C8.303 6.06963 8.835 5.53854 9.5 5.53854C10.146 5.53854 10.678 6.06963 10.678 6.71453C10.678 7.35942 10.146 7.89052 9.5 7.89052ZM13.452 7.89052C12.806 7.89052 12.255 7.35942 12.255 6.71453C12.255 6.06963 12.787 5.53854 13.452 5.53854C14.098 5.53854 14.63 6.06963 14.63 6.71453C14.63 7.35942 14.117 7.89052 13.452 7.89052Z" fill="#2C2C69"/>
</svg>
