<svg width="36" height="36" viewBox="0 0 36 36" fill="none" xmlns="http://www.w3.org/2000/svg">
<circle cx="18" cy="18" r="18" fill="#2C2C69"/>
<path d="M21 24V25.25C21 25.6642 20.6642 26 20.25 26H11.75C11.3358 26 11 25.6642 11 25.25V13.75C11 13.3358 11.3358 13 11.75 13H14V22.25C14 23.215 14.785 24 15.75 24H21ZM21 13.25V10H15.75C15.3358 10 15 10.3358 15 10.75V22.25C15 22.6642 15.3358 23 15.75 23H24.25C24.6642 23 25 22.6642 25 22.25V14H21.75C21.3375 14 21 13.6625 21 13.25ZM24.7803 12.2803L22.7197 10.2197C22.579 10.079 22.3882 10 22.1893 10H22V13H25V12.8107C25 12.6118 24.921 12.421 24.7803 12.2803Z" fill="white"/>
</svg>
