<svg width="62" height="60" viewBox="0 0 62 60" fill="none" xmlns="http://www.w3.org/2000/svg">
<path d="M32.7523 45.8867H29.2476V58.2354H32.7523V45.8867Z" fill="#FFD121"/>
<path d="M23.1259 56.4718C22.1516 56.4718 21.3618 57.2616 21.3618 58.2359C21.3618 59.2102 22.1516 60 23.1259 60H38.8739C39.8482 60 40.638 59.2102 40.638 58.2359C40.638 57.2616 39.8482 56.4718 38.8739 56.4718H23.1259Z" fill="#FFD121"/>
<path d="M3 11.9395C3 10.8349 3.89543 9.93945 5 9.93945H57C58.1046 9.93945 59 10.8349 59 11.9395V15.9395C59 21.4623 54.5229 25.9395 49 25.9395H13C7.47715 25.9395 3 21.4623 3 15.9395V11.9395Z" fill="#FFF7CA" stroke="#FFD121" stroke-width="4"/>
<path d="M11.6665 3.65432C11.6665 2.74066 12.4072 2 13.3208 2H48.6788C49.5925 2 50.3332 2.74067 50.3332 3.65432V28C50.3332 38.6775 41.6773 47.3333 30.9998 47.3333C20.3223 47.3333 11.6665 38.6775 11.6665 28V3.65432Z" fill="#FFF7CA" stroke="#FFD121" stroke-width="4"/>
<path d="M41.2339 20.8203C41.2339 26.6193 36.5329 31.3203 30.7339 31.3203C24.9349 31.3203 20.2339 26.6193 20.2339 20.8203C20.2339 15.0213 24.9349 10.3203 30.7339 10.3203C36.5329 10.3203 41.2339 15.0213 41.2339 20.8203Z" fill="#FFF1A8" stroke="#FFD121" stroke-width="3"/>
<path d="M25.6667 23.9994C27.1394 23.9994 28.3333 22.8054 28.3333 21.3327C28.3333 19.8599 27.1394 18.666 25.6667 18.666C24.1939 18.666 23 19.8599 23 21.3327C23 22.8054 24.1939 23.9994 25.6667 23.9994Z" fill="#FFD121"/>
<path d="M26.5337 21.332C27.086 21.332 27.5337 20.8843 27.5337 20.332C27.5337 19.7797 27.086 19.332 26.5337 19.332C25.9814 19.332 25.5337 19.7797 25.5337 20.332C25.5337 20.8843 25.9814 21.332 26.5337 21.332Z" fill="#FDEFA6"/>
<path d="M35.6667 21.3333C37.1394 21.3333 38.3333 20.1394 38.3333 18.6667C38.3333 17.1939 37.1394 16 35.6667 16C34.1939 16 33 17.1939 33 18.6667C33 20.1394 34.1939 21.3333 35.6667 21.3333Z" fill="#FFD121"/>
<path d="M36.5337 18.666C37.086 18.666 37.5337 18.2183 37.5337 17.666C37.5337 17.1137 37.086 16.666 36.5337 16.666C35.9814 16.666 35.5337 17.1137 35.5337 17.666C35.5337 18.2183 35.9814 18.666 36.5337 18.666Z" fill="#FDEFA6"/>
</svg>
