<svg width="16" height="14" viewBox="0 0 16 14" fill="none" xmlns="http://www.w3.org/2000/svg">
<path d="M15.125 8.0957C14.6415 8.0957 14.2501 8.48702 14.2501 8.97058V10.8229C14.2501 11.6106 13.6094 12.2514 12.8216 12.2514H3.43022C2.64248 12.2514 2.00172 11.6106 2.00172 10.8229V8.97058C2.00172 8.48702 1.6104 8.0957 1.12683 8.0957C0.643266 8.0957 0.251953 8.48702 0.251953 8.97058V10.8229C0.251953 12.5752 1.6779 14.0011 3.43018 14.0011H12.8223C14.5737 14.0011 15.9996 12.5752 15.9996 10.8229V8.97058C15.9996 8.48702 15.6083 8.0957 15.1247 8.0957H15.125Z" fill="#2C2C69"/>
<path d="M8.12664 0C7.64307 0 7.25176 0.391313 7.25176 0.874881V7.29214L5.62844 5.66882C5.28754 5.32792 4.73392 5.32792 4.39044 5.66882C4.04954 6.00971 4.04954 6.56334 4.39044 6.90682L7.50458 10.021C7.67802 10.1944 7.90357 10.2798 8.12658 10.2798C8.34958 10.2798 8.57513 10.1944 8.74514 10.0235L11.8593 6.90938C12.2002 6.56848 12.2002 6.01485 11.8593 5.67137C11.5184 5.33048 10.9648 5.33048 10.6213 5.67137L9.00139 7.29214V0.874881C9.00139 0.391313 8.61021 0 8.12664 0Z" fill="#2C2C69"/>
</svg>
