<svg width="26" height="34" viewBox="0 0 26 34" fill="none" xmlns="http://www.w3.org/2000/svg">
<path fill-rule="evenodd" clip-rule="evenodd" d="M3.37404 17.6132C1.97369 19.282 1.1301 21.434 1.1301 23.7828C1.1301 29.086 5.4356 33.3915 10.7388 33.3915C16.042 33.3915 20.3475 29.086 20.3475 23.7828C20.3475 21.4342 19.5039 19.2823 18.1035 17.6132L12.0472 10.2679C11.725 9.87795 11.2445 9.65186 10.7387 9.65186C10.2328 9.65186 9.75235 9.87795 9.43018 10.2679L3.37404 17.6132ZM4.24165 18.3367L10.3038 10.9889C10.4098 10.8575 10.5695 10.7826 10.739 10.7826C10.9086 10.7826 11.0683 10.8575 11.1742 10.9889L17.2364 18.3367C18.4728 19.8105 19.2175 21.7097 19.2175 23.7828C19.2175 28.463 15.4192 32.2614 10.7389 32.2614C6.05863 32.2614 2.2603 28.463 2.2603 23.7828C2.2603 21.7098 3.00521 19.8108 4.24165 18.3367Z" fill="currentColor"/>
<path fill-rule="evenodd" clip-rule="evenodd" d="M10.7388 28.8694C7.93102 28.8694 5.65191 26.5901 5.65191 23.7825C5.65191 23.4702 5.39897 23.2173 5.08668 23.2173C4.77439 23.2173 4.52145 23.4702 4.52145 23.7825C4.52145 27.2135 7.30802 30.0002 10.7391 30.0002C11.0514 30.0002 11.3044 29.7473 11.3044 29.435C11.3044 29.1227 11.0514 28.8697 10.7391 28.8697L10.7388 28.8694Z" fill="currentColor"/>
<path fill-rule="evenodd" clip-rule="evenodd" d="M7.38157 5.97659L5.42445 2.58663C5.12205 2.06239 4.56248 1.73877 3.95627 1.73877C3.35005 1.73877 2.79047 2.06236 2.48808 2.58663L0.530966 5.97659C0.193244 6.55878 -0.000366211 7.23564 -0.000366211 7.95631C-0.000366211 10.1395 1.77302 11.9131 3.95641 11.9131C6.1398 11.9131 7.91319 10.1397 7.91319 7.95631C7.91319 7.23564 7.71931 6.55878 7.38157 5.97659ZM6.40373 6.54323L4.4452 3.15186C4.34488 2.97664 4.15835 2.86924 3.95627 2.86924C3.75418 2.86924 3.56768 2.97664 3.46733 3.15186L1.5088 6.54323C1.26858 6.95865 1.13009 7.44195 1.13009 7.95628C1.13009 9.51631 2.3962 10.7824 3.95623 10.7824C5.51626 10.7824 6.78237 9.51631 6.78237 7.95628C6.78237 7.44191 6.64396 6.95865 6.40373 6.54323Z" fill="currentColor"/>
<path fill-rule="evenodd" clip-rule="evenodd" d="M15.7243 5.83683C15.72 5.84248 15.7158 5.84955 15.7101 5.8552C15.0714 6.7723 14.6956 7.88579 14.6956 9.08689C14.6956 12.2069 17.2278 14.7392 20.3478 14.7392C23.4679 14.7392 26.0001 12.2069 26.0001 9.08689C26.0001 7.88579 25.6242 6.7723 24.9855 5.8552L21.7256 1.31492C21.4062 0.871207 20.8933 0.608398 20.3478 0.608398C19.8024 0.608398 19.2894 0.871228 18.9701 1.31492L15.7243 5.83683ZM16.6428 6.49672L19.8886 1.9749C19.9946 1.82653 20.1656 1.73892 20.3479 1.73892C20.5301 1.73892 20.7011 1.82653 20.8071 1.9749L24.06 6.50504C24.5701 7.237 24.8697 8.12726 24.8697 9.08672C24.8697 11.5822 22.8433 13.6085 20.3479 13.6085C17.8524 13.6085 15.826 11.5822 15.826 9.08672C15.826 8.12585 16.1256 7.23559 16.6371 6.50222L16.6428 6.49672Z" fill="currentColor"/>
</svg>
