<svg width="10" height="10" viewBox="0 0 10 10" fill="none" xmlns="http://www.w3.org/2000/svg">
<path d="M0.42854 9.9995C0.318941 9.9995 0.209347 9.95873 0.125807 9.87452C-0.0419357 9.70678 -0.0419357 9.43677 0.125807 9.26902L9.26871 0.125811C9.43645 -0.0419371 9.70645 -0.0419371 9.87419 0.125811C10.0419 0.29356 10.0419 0.563561 9.87419 0.731315L0.731291 9.87452C0.647754 9.95806 0.538137 9.9995 0.42854 9.9995Z" fill="white"/>
<path d="M9.57093 9.99899C9.46133 9.99899 9.35174 9.95822 9.2682 9.87401L0.125807 0.731317C-0.0419357 0.563568 -0.0419357 0.293567 0.125807 0.125813C0.29355 -0.0419403 0.563543 -0.0419352 0.731291 0.125813L9.87419 9.26902C10.0419 9.43677 10.0419 9.70677 9.87419 9.87453C9.79066 9.95806 9.68106 9.9995 9.57146 9.9995L9.57093 9.99899Z" fill="white"/>
</svg>
