<svg width="18" height="18" viewBox="0 0 18 18" fill="currentColor"
  xmlns="http://www.w3.org/2000/svg">
  <path
    d="M10.3751 17.3337H7.62508C7.4723 17.3337 7.33689 17.285 7.21883 17.1878C7.10078 17.0906 7.02786 16.9656 7.00008 16.8128L6.66675 14.7087C6.40286 14.6114 6.12508 14.4795 5.83342 14.3128C5.54175 14.1462 5.2848 13.9725 5.06258 13.792L3.12508 14.6878C2.9723 14.7573 2.81953 14.7677 2.66675 14.7191C2.51397 14.6705 2.39591 14.5698 2.31258 14.417L0.937581 11.9795C0.854248 11.8406 0.833415 11.6948 0.875081 11.542C0.916748 11.3892 1.00008 11.2642 1.12508 11.167L2.91675 9.85449C2.88897 9.72949 2.87161 9.58713 2.86466 9.42741C2.85772 9.26769 2.85425 9.12533 2.85425 9.00033C2.85425 8.87533 2.85772 8.73296 2.86466 8.57324C2.87161 8.41352 2.88897 8.27116 2.91675 8.14616L1.12508 6.83366C1.00008 6.73644 0.916748 6.61144 0.875081 6.45866C0.833415 6.30588 0.854248 6.16005 0.937581 6.02116L2.31258 3.58366C2.39591 3.43088 2.51397 3.33019 2.66675 3.28158C2.81953 3.23296 2.9723 3.24338 3.12508 3.31283L5.06258 4.20866C5.2848 4.0281 5.54175 3.85449 5.83342 3.68783C6.12508 3.52116 6.40286 3.39616 6.66675 3.31283L7.00008 1.18783C7.02786 1.03505 7.10078 0.910048 7.21883 0.812825C7.33689 0.715603 7.4723 0.666992 7.62508 0.666992H10.3751C10.5279 0.666992 10.6633 0.715603 10.7813 0.812825C10.8994 0.910048 10.9723 1.03505 11.0001 1.18783L11.3334 3.29199C11.5973 3.38921 11.8786 3.51769 12.1772 3.67741C12.4758 3.83713 12.7292 4.01421 12.9376 4.20866L14.8751 3.31283C15.0279 3.24338 15.1806 3.23296 15.3334 3.28158C15.4862 3.33019 15.6042 3.43088 15.6876 3.58366L17.0626 6.00033C17.1459 6.13921 17.1702 6.28852 17.1355 6.44824C17.1008 6.60796 17.014 6.73644 16.8751 6.83366L15.0834 8.10449C15.1112 8.24338 15.1286 8.39269 15.1355 8.55241C15.1424 8.71213 15.1459 8.86144 15.1459 9.00033C15.1459 9.13921 15.1424 9.28505 15.1355 9.43783C15.1286 9.5906 15.1112 9.73644 15.0834 9.87533L16.8751 11.167C17.0001 11.2642 17.0834 11.3892 17.1251 11.542C17.1667 11.6948 17.1459 11.8406 17.0626 11.9795L15.6876 14.417C15.6042 14.5698 15.4862 14.6705 15.3334 14.7191C15.1806 14.7677 15.0279 14.7573 14.8751 14.6878L12.9376 13.792C12.7154 13.9725 12.4619 14.1496 12.1772 14.3232C11.8924 14.4969 11.6112 14.6253 11.3334 14.7087L11.0001 16.8128C10.9723 16.9656 10.8994 17.0906 10.7813 17.1878C10.6633 17.285 10.5279 17.3337 10.3751 17.3337ZM9.00008 11.7087C9.75008 11.7087 10.389 11.4448 10.9167 10.917C11.4445 10.3892 11.7084 9.75033 11.7084 9.00033C11.7084 8.25033 11.4445 7.61144 10.9167 7.08366C10.389 6.55588 9.75008 6.29199 9.00008 6.29199C8.25008 6.29199 7.61119 6.55588 7.08342 7.08366C6.55564 7.61144 6.29175 8.25033 6.29175 9.00033C6.29175 9.75033 6.55564 10.3892 7.08342 10.917C7.61119 11.4448 8.25008 11.7087 9.00008 11.7087Z"
    fill="currentColor" />
</svg>