<svg width="20" height="21" viewBox="0 0 20 21" fill="current" xmlns="http://www.w3.org/2000/svg">
<path d="M2.29167 18.2733C2.11111 18.2733 1.96181 18.2143 1.84375 18.0962C1.72569 17.9782 1.66667 17.8289 1.66667 17.6483V8.89832C1.66667 8.71776 1.72569 8.56845 1.84375 8.4504C1.96181 8.33234 2.11111 8.27332 2.29167 8.27332H5.20833C5.38889 8.27332 5.53819 8.33234 5.65625 8.4504C5.77431 8.56845 5.83333 8.71776 5.83333 8.89832V17.6483C5.83333 17.8289 5.77431 17.9782 5.65625 18.0962C5.53819 18.2143 5.38889 18.2733 5.20833 18.2733H2.29167ZM8.54167 18.2733C8.36111 18.2733 8.21181 18.2143 8.09375 18.0962C7.97569 17.9782 7.91667 17.8289 7.91667 17.6483V3.89832C7.91667 3.71776 7.97569 3.56845 8.09375 3.4504C8.21181 3.33234 8.36111 3.27332 8.54167 3.27332H11.4583C11.6389 3.27332 11.7882 3.33234 11.9063 3.4504C12.0243 3.56845 12.0833 3.71776 12.0833 3.89832V17.6483C12.0833 17.8289 12.0243 17.9782 11.9063 18.0962C11.7882 18.2143 11.6389 18.2733 11.4583 18.2733H8.54167ZM14.7917 18.2733C14.6111 18.2733 14.4618 18.2143 14.3438 18.0962C14.2257 17.9782 14.1667 17.8289 14.1667 17.6483V10.565C14.1667 10.3844 14.2257 10.2351 14.3438 10.1171C14.4618 9.99901 14.6111 9.93998 14.7917 9.93998H17.7083C17.8889 9.93998 18.0382 9.99901 18.1563 10.1171C18.2743 10.2351 18.3333 10.3844 18.3333 10.565V17.6483C18.3333 17.8289 18.2743 17.9782 18.1563 18.0962C18.0382 18.2143 17.8889 18.2733 17.7083 18.2733H14.7917Z"/>
</svg>
