<svg width="20" height="20" viewBox="0 0 20 20" fill="none" xmlns="http://www.w3.org/2000/svg">
<path d="M10 0C7.3474 0 4.8044 1.05265 2.92912 2.92912C1.05273 4.8044 0 7.34743 0 10C0 12.6526 1.05265 15.1956 2.92912 17.0709C4.8044 18.9473 7.34743 20 10 20C12.6526 20 15.1956 18.9473 17.0709 17.0709C18.9473 15.1956 20 12.6526 20 10C19.9978 7.3485 18.9429 4.80639 17.0678 2.93223C15.1936 1.05695 12.6514 0.00198143 10 0ZM10 18.5847C7.72333 18.5847 5.53952 17.6803 3.92974 16.0703C2.31997 14.4604 1.41536 12.2767 1.41536 10.0001C1.41536 7.72342 2.31983 5.5396 3.92974 3.92983C5.53966 2.32006 7.72333 1.41545 10 1.41545C12.2767 1.41545 14.4605 2.31991 16.0703 3.92983C17.68 5.53974 18.5846 7.72342 18.5846 10.0001C18.5824 12.2756 17.6769 14.4583 16.0669 16.0672C14.4581 17.6771 12.2755 18.5825 10 18.5847Z" fill="white"/>
<path d="M13.123 12.1225L7.87517 6.87459C7.59839 6.59782 7.15039 6.5986 6.87439 6.87459C6.5984 7.15059 6.59762 7.59859 6.87439 7.87537L12.1223 13.1232C12.399 13.4 12.847 13.3992 13.123 13.1232C13.399 12.8472 13.3998 12.3992 13.123 12.1225Z" fill="white"/>
<path d="M13.1232 6.8746C12.9911 6.74091 12.8113 6.66585 12.6228 6.66664C12.4352 6.66664 12.2546 6.74092 12.1225 6.8746L6.8746 12.1225C6.59782 12.3992 6.5986 12.8472 6.8746 13.1232C7.15059 13.3992 7.5986 13.4 7.87537 13.1232L13.1232 7.87538C13.2569 7.74325 13.3312 7.56263 13.3312 7.375C13.332 7.18657 13.2569 7.00672 13.1232 6.8746Z" fill="white"/>
</svg>
