<svg width="18" height="19" viewBox="0 0 18 19" fill="currentColor" xmlns="http://www.w3.org/2000/svg">
<path d="M17.5 0.773315L17.34 0.803315L12 2.87332L6 0.773315L0.36 2.67332C0.15 2.74332 0 2.92332 0 3.15332V18.2733C0 18.5533 0.22 18.7733 0.5 18.7733L0.66 18.7433L6 16.6733L12 18.7733L17.64 16.8733C17.85 16.8033 18 16.6233 18 16.3933V1.27332C18 0.993315 17.78 0.773315 17.5 0.773315ZM7 3.24332L11 4.64332V16.3033L7 14.9033V3.24332ZM2 4.23332L5 3.22332V14.9233L2 16.0833V4.23332ZM16 15.3133L13 16.3233V4.63332L16 3.47332V15.3133Z" />
</svg>
