<svg width="21" height="16" viewBox="0 0 21 16" fill="currentColor"
  xmlns="http://www.w3.org/2000/svg">
  <path fill-rule="evenodd" clip-rule="evenodd"
    d="M9.98865 3.63636L14.8025 0.8856C15.1201 0.355127 15.7004 0 16.3636 0C17.3678 0 18.1818 0.814029 18.1818 1.81818V4.45527C19.4365 4.77825 20.3636 5.91724 20.3636 7.27273C20.3636 8.62822 19.4365 9.7672 18.1818 10.0902V12.7273C18.1818 13.7314 17.3678 14.5455 16.3636 14.5455C15.7004 14.5455 15.1201 14.1903 14.8025 13.6599L9.98865 10.9091H7.27273V14.1818C7.27273 15.186 6.45869 16 5.45454 16C4.45039 16 3.63636 15.186 3.63636 14.1818V10.9091C1.62806 10.9091 0 9.28102 0 7.27273C0 5.26444 1.62806 3.63636 3.63636 3.63636H9.98865ZM16.7273 1.81818C16.7273 1.61735 16.5644 1.45455 16.3636 1.45455C16.1628 1.45455 16 1.61735 16 1.81818V12.7273C16 12.9281 16.1628 13.0909 16.3636 13.0909C16.5644 13.0909 16.7273 12.9281 16.7273 12.7273V1.81818Z"
    fill="currentColor" />
</svg>