<svg width="30" height="24" viewBox="0 0 30 24" fill="none" xmlns="http://www.w3.org/2000/svg">
<path d="M18.0796 6.85298C18.0283 6.75664 18.0181 6.64449 18.0518 6.54096C18.0855 6.43743 18.1587 6.35116 18.2569 6.30083C19.7028 5.55745 21.2483 5.01679 22.8479 4.6947C22.9564 4.67169 23.0706 4.69326 23.1644 4.75365C23.2567 4.81261 23.3226 4.90751 23.3446 5.01391C23.3665 5.12175 23.3431 5.23247 23.2816 5.32306C23.2186 5.41508 23.1219 5.47691 23.012 5.49704C21.4899 5.80331 20.0177 6.31953 18.6422 7.02694C18.4371 7.13191 18.1851 7.05429 18.0796 6.85298ZM6.98555 5.49705C8.50764 5.80476 9.97846 6.31953 11.3554 7.02695C11.5605 7.13191 11.811 7.05427 11.9179 6.85296C12.0234 6.65309 11.9443 6.40579 11.7407 6.30225C10.2947 5.55743 8.74921 5.01677 7.14957 4.69611C7.04116 4.67311 6.9269 4.69324 6.83314 4.75363C6.74085 4.81258 6.67493 4.90748 6.65295 5.01533C6.63098 5.12173 6.65441 5.23389 6.71594 5.32447C6.77894 5.41506 6.87568 5.47692 6.98555 5.49705ZM6.98555 9.80934C8.50764 10.1156 9.97846 10.6304 11.3554 11.3378C11.5605 11.4428 11.811 11.3637 11.9179 11.1638C12.0234 10.964 11.9443 10.7167 11.7407 10.6117C10.2947 9.86829 8.74921 9.32763 7.14957 9.00554C6.92397 8.96096 6.70422 9.10475 6.65881 9.32619C6.6134 9.54762 6.75989 9.76331 6.98549 9.80788L6.98555 9.80934ZM18.4486 11.3853C18.516 11.3853 18.5819 11.3694 18.6405 11.3392C20.0176 10.6304 21.4884 10.1156 23.0119 9.80934C23.2375 9.76477 23.3825 9.54909 23.3371 9.32765C23.2917 9.10621 23.0719 8.96242 22.8463 9.007C21.2481 9.32909 19.7025 9.86975 18.2567 10.6131C18.0853 10.6994 17.996 10.8906 18.0414 11.0747C18.0868 11.2587 18.2553 11.3882 18.4486 11.3867L18.4486 11.3853ZM6.98405 14.1216C8.5076 14.4278 9.97842 14.9426 11.3554 15.6515C11.414 15.6817 11.4799 15.6975 11.5473 15.6975C11.7407 15.6989 11.9091 15.5695 11.9545 15.3855C11.9999 15.2014 11.9106 15.0102 11.7392 14.9239C10.2933 14.1805 8.74773 13.6398 7.14959 13.3178C6.92399 13.2732 6.70425 13.417 6.65883 13.6384C6.61342 13.8598 6.75845 14.0755 6.98405 14.1201L6.98405 14.1216ZM22.8481 13.3192C21.2484 13.6413 19.7043 14.182 18.2585 14.9253C18.0856 15.0116 17.9977 15.2029 18.0431 15.3869C18.0886 15.571 18.257 15.7004 18.4504 15.6989C18.5178 15.6989 18.5837 15.6831 18.6423 15.6529C20.0194 14.944 21.4902 14.4293 23.0121 14.123C23.2392 14.0784 23.3842 13.8628 23.3388 13.6399C23.2934 13.4185 23.0736 13.2761 22.848 13.3207L22.8481 13.3192ZM29.9822 23.7081C29.9793 23.7182 29.9749 23.7282 29.972 23.7369L29.969 23.7441V23.7455C29.9617 23.7628 29.9529 23.78 29.9441 23.7958L29.9383 23.8059C29.928 23.8217 29.9178 23.8361 29.906 23.849L29.9031 23.8519V23.8533C29.8914 23.8663 29.8797 23.8778 29.8665 23.8893L29.8562 23.8979L29.8548 23.8994C29.8416 23.9109 29.8284 23.9209 29.8137 23.931H29.8094C29.7947 23.9411 29.7801 23.9497 29.7639 23.9569L29.7551 23.9612C29.739 23.9684 29.7215 23.9756 29.7039 23.9799H29.7009C29.6848 23.9856 29.6673 23.9885 29.6511 23.9914L29.6365 23.9943V23.9928C29.6189 23.9957 29.6028 23.9971 29.5867 23.9971H29.5823C29.5676 23.9971 29.5545 23.9971 29.5398 23.9957H29.531C29.5208 23.9957 29.5105 23.9943 29.5002 23.9914L29.4783 23.9856L29.4607 23.9813L29.4329 23.9712L29.4241 23.9684L29.4182 23.9655C26.2246 22.7045 21.3713 21.9898 14.9988 21.8475C8.62633 21.9898 3.77273 22.7045 0.576377 23.9684L0.570517 23.9712L0.561728 23.9741C0.552938 23.977 0.544148 23.9813 0.533894 23.9827V23.9842C0.528034 23.9856 0.522174 23.9871 0.516314 23.9885L0.495805 23.9942L0.465041 23.9986H0.456251C0.443067 24 0.428417 24 0.415231 24H0.410836C0.393257 24 0.377142 23.9986 0.361028 23.9971L0.346379 23.9942C0.328799 23.9914 0.312685 23.9885 0.296572 23.9827H0.293642C0.276063 23.9784 0.258483 23.9712 0.242368 23.9641L0.232113 23.9597C0.217464 23.9526 0.202814 23.9439 0.188164 23.9353L0.183769 23.9324C0.169119 23.9224 0.15447 23.9123 0.141286 23.9008L0.129567 23.8907H0.131032C0.117847 23.8792 0.106127 23.8663 0.0958728 23.8533L0.0914779 23.849C0.0797583 23.8346 0.0695035 23.8203 0.060714 23.8059L0.0548542 23.7958C0.0445994 23.78 0.0358097 23.7627 0.0284851 23.7455L0.0255552 23.7383C0.0211602 23.7282 0.0182306 23.7182 0.0153005 23.7095C0.0123705 23.6995 0.0123706 23.6995 0.0109057 23.6952C0.00944084 23.6894 0.00651113 23.6794 0.0050459 23.6707L0.0065112 23.6693C0.00504597 23.6621 0.00358095 23.6549 0.00358095 23.6477C0.00358095 23.642 0.00211628 23.6362 0.000651047 23.6305C-0.000813809 23.6247 0.000651047 23.6118 0.000651047 23.6031V3.68818C-0.000813809 3.58034 0.043134 3.47537 0.120776 3.39772C0.198418 3.32152 0.303894 3.27694 0.413766 3.27694C0.910377 3.27694 1.41288 3.29851 1.91387 3.33446V2.22872C1.91387 2.12088 1.95782 2.01735 2.03693 1.93971C2.11457 1.8635 2.22005 1.82036 2.33138 1.82036C2.75037 1.82036 3.17227 1.83761 3.59418 1.86637V0.409799C3.59418 0.300517 3.63812 0.196992 3.71577 0.120781C3.79341 0.0431337 3.90035 0 4.01022 0C7.85875 0.010065 11.6499 1.39333 14.9989 4.00604C18.3478 1.39193 22.139 0.0103068 25.9846 0C26.2146 0 26.4021 0.182611 26.4021 0.409806V1.86925C26.8225 1.84049 27.2459 1.82468 27.6634 1.82324V1.8218C27.7747 1.8218 27.8802 1.86494 27.9579 1.94115C28.037 2.01879 28.0809 2.12232 28.0809 2.2316V3.3359C28.5805 3.29852 29.083 3.27982 29.581 3.27838C29.6909 3.27695 29.7978 3.32008 29.8769 3.39629C29.9561 3.47394 30 3.57747 30 3.68674V23.6017V23.629C30 23.6391 30 23.6405 29.9971 23.6463V23.6477C29.9971 23.6549 29.9956 23.6621 29.9941 23.6679C29.9941 23.6765 29.9912 23.6837 29.9883 23.6923C29.9868 23.6995 29.9837 23.7038 29.9822 23.7081ZM28.0822 4.15573V20.3853C28.0822 20.5118 28.0236 20.6312 27.921 20.7088C27.82 20.7864 27.6866 20.8138 27.5621 20.7821C24.1122 19.9079 20.479 20.0186 17.0906 21.0999C22.2135 21.3285 26.2672 21.9655 29.1661 22.9994V4.1011C28.8057 4.10973 28.4425 4.12841 28.0822 4.15573ZM26.4019 2.68763V17.3167C26.4033 17.5424 26.2173 17.725 25.9873 17.7265C23.0618 17.7581 20.1991 18.5677 17.7044 20.0674C20.8189 19.2262 24.099 19.1557 27.2485 19.8646V2.64601C26.9672 2.6532 26.6846 2.6675 26.4019 2.68763ZM25.5698 0.82556C22.0172 0.930527 18.5189 2.27496 15.4163 4.72816L15.4148 20.5966C18.5381 18.2801 22.0232 17.0134 25.5683 16.9156L25.5698 0.82556ZM4.42911 0.82556L4.42764 16.9141C7.97281 17.0133 11.4579 18.2801 14.5811 20.5951L14.5826 4.72669C11.4784 2.27507 7.98024 0.930837 4.42761 0.82556H4.42911ZM2.7488 19.8648C5.89843 19.1559 9.17864 19.2264 12.2929 20.0676C9.79807 18.5678 6.9356 17.7583 4.01001 17.7267C3.78002 17.7252 3.59542 17.5426 3.59542 17.3169V2.68781C3.31415 2.66768 3.03288 2.65042 2.74869 2.64467L2.7488 19.8648ZM0.831172 4.10128V22.9981C3.73178 21.9642 7.7838 21.3272 12.9067 21.0986V21.1C9.51822 20.0188 5.88504 19.908 2.43516 20.7823C2.31064 20.8139 2.17733 20.7866 2.07625 20.7089C1.9737 20.6313 1.9151 20.5119 1.9151 20.3854V4.15587C1.55473 4.12855 1.19154 4.10991 0.831172 4.10128Z" fill="#2C2C69"/>
</svg>
