<svg width="20" height="14" viewBox="0 0 20 14" fill="currentColor"
  xmlns="http://www.w3.org/2000/svg">
  <path fill-rule="evenodd" clip-rule="evenodd"
    d="M13.8917 7.94135C15.0334 8.71635 15.8334 9.76635 15.8334 11.1663V13.6663H19.1667V11.1663C19.1667 9.34968 16.1917 8.27468 13.8917 7.94135Z"
    fill="currentColor" />
  <path
    d="M7.50005 6.99967C9.341 6.99967 10.8334 5.50729 10.8334 3.66634C10.8334 1.82539 9.341 0.333008 7.50005 0.333008C5.6591 0.333008 4.16672 1.82539 4.16672 3.66634C4.16672 5.50729 5.6591 6.99967 7.50005 6.99967Z"
    fill="currentColor" />
  <path fill-rule="evenodd" clip-rule="evenodd"
    d="M12.5 6.99967C14.3417 6.99967 15.8334 5.50801 15.8334 3.66634C15.8334 1.82467 14.3417 0.333008 12.5 0.333008C12.1084 0.333008 11.7417 0.416341 11.3917 0.533008C12.0834 1.39134 12.5 2.48301 12.5 3.66634C12.5 4.84967 12.0834 5.94134 11.3917 6.79967C11.7417 6.91634 12.1084 6.99967 12.5 6.99967Z"
    fill="currentColor" />
  <path fill-rule="evenodd" clip-rule="evenodd"
    d="M7.50004 7.83301C5.27504 7.83301 0.833374 8.94967 0.833374 11.1663V13.6663H14.1667V11.1663C14.1667 8.94967 9.72504 7.83301 7.50004 7.83301Z"
    fill="currentColor" />
</svg>