<svg width="12" height="12" viewBox="0 0 12 12" fill="none" xmlns="http://www.w3.org/2000/svg">
<path d="M11.0847 11.8472L7 7.75672C6.66102 8.05092 6.26554 8.28006 5.81356 8.44413C5.36158 8.6082 4.88136 8.69024 4.37288 8.69024C3.15254 8.69024 2.11864 8.26591 1.27119 7.41726C0.423729 6.5686 0 5.54455 0 4.34512C0 3.14569 0.423729 2.12164 1.27119 1.27298C2.11864 0.424328 3.14689 0 4.35593 0C5.55367 0 6.57345 0.424328 7.41525 1.27298C8.25706 2.12164 8.67797 3.14569 8.67797 4.34512C8.67797 4.83168 8.59887 5.30127 8.44068 5.75389C8.28249 6.20651 8.0452 6.63083 7.72881 7.02687L11.8475 11.1174C11.9492 11.2079 12 11.3239 12 11.4653C12 11.6068 11.9435 11.7341 11.8305 11.8472C11.7288 11.9491 11.6045 12 11.4576 12C11.3107 12 11.1864 11.9491 11.0847 11.8472ZM4.35593 7.67185C5.27119 7.67185 6.05085 7.34653 6.69491 6.6959C7.33898 6.04526 7.66102 5.26167 7.66102 4.34512C7.66102 3.42857 7.33898 2.64498 6.69491 1.99434C6.05085 1.34371 5.27119 1.01839 4.35593 1.01839C3.42938 1.01839 2.64124 1.34371 1.99153 1.99434C1.34181 2.64498 1.01695 3.42857 1.01695 4.34512C1.01695 5.26167 1.34181 6.04526 1.99153 6.6959C2.64124 7.34653 3.42938 7.67185 4.35593 7.67185Z" fill="#2C2C69"/>
</svg>
