<svg width="32" height="34" viewBox="0 0 32 34" fill="none" xmlns="http://www.w3.org/2000/svg">
<path d="M16.0045 19.8918C18.2281 19.8918 20.0373 18.0825 20.0373 15.8591C20.0373 13.6355 18.2279 11.8263 16.0045 11.8263C13.7811 11.8263 11.9718 13.6356 11.9718 15.8591C11.9718 18.0827 13.7811 19.8918 16.0045 19.8918ZM16.0045 14.193C16.9232 14.193 17.6703 14.9401 17.6703 15.8588C17.6703 16.7775 16.9232 17.5247 16.0045 17.5247C15.0858 17.5247 14.3387 16.7775 14.3387 15.8588C14.3387 14.9401 15.0858 14.193 16.0045 14.193ZM31.9958 18.6655C31.9914 18.5412 31.9662 18.4199 31.9218 18.3015C31.9115 18.2749 31.9056 18.2483 31.8937 18.2231C31.8878 18.2083 31.8848 18.1936 31.8789 18.1788L29.5991 13.6207C29.3979 13.2198 28.9896 12.9668 28.5399 12.9668H25.1594C25.146 12.6014 24.967 12.2611 24.6682 12.048L17.1851 6.70296V6.21621H21.7004C22.3543 6.21621 22.884 5.68659 22.884 5.03267V1.61372C22.884 0.959798 22.3543 0.430176 21.7004 0.430176H16.0016C15.3477 0.430176 14.8181 0.959798 14.8181 1.61372V6.70315L7.33503 12.0482C7.03618 12.2613 6.85866 12.6015 6.84385 12.967H3.46334C3.01507 12.967 2.60528 13.2199 2.40406 13.6209L0.12427 18.1789C0.116873 18.1937 0.115394 18.2085 0.109477 18.2233C0.0976411 18.2485 0.0917234 18.2751 0.082847 18.3017C0.0384631 18.4201 0.0133152 18.5414 0.0088764 18.6657C0.0088764 18.6805 0 18.6938 0 18.7086V32.3858C0 33.0397 0.529622 33.5694 1.18354 33.5694H30.8165C31.4704 33.5694 32 33.0397 32 32.3858V18.7086C32 18.6938 31.9926 18.6805 31.9911 18.6657L31.9958 18.6655ZM28.9053 17.5249H25.1667V15.3338H27.8105L28.9067 17.5249H28.9053ZM20.5182 3.84763H17.1865V2.79577H20.5182V3.84763ZM4.19854 15.3339H6.84229V17.5249H3.10377L4.20001 15.3339H4.19854ZM2.37145 19.8919H6.8424V31.2021H2.37145V19.8919ZM9.20949 18.7084V13.619L16.0044 8.76511L22.7992 13.619V31.2006H20.6067V23.2665C20.6067 22.6125 20.0771 22.0829 19.4232 22.0829H12.5851C11.9312 22.0829 11.4016 22.6125 11.4016 23.2665V31.2006H9.20904V18.7069L9.20949 18.7084ZM13.7691 31.2021V24.4515H18.24V31.2021H13.7691ZM29.6373 31.2021H25.1663V19.8919H29.6373V31.2021ZM5.79028 22.1272V25.5477C5.79028 26.2016 5.26066 26.7312 4.60674 26.7312C3.95281 26.7312 3.42319 26.2016 3.42319 25.5477V22.1272C3.42319 21.4733 3.95281 20.9437 4.60674 20.9437C5.26066 20.9437 5.79028 21.4733 5.79028 22.1272ZM26.2184 25.5477V22.1272C26.2184 21.4733 26.7481 20.9437 27.402 20.9437C28.0559 20.9437 28.5855 21.4733 28.5855 22.1272V25.5477C28.5855 26.2016 28.0559 26.7312 27.402 26.7312C26.7481 26.7312 26.2184 26.2016 26.2184 25.5477Z" fill="#F9C7E9"/>
</svg>
