<svg width="12" height="12" viewBox="0 0 12 12" fill="none" xmlns="http://www.w3.org/2000/svg">
<path d="M6.65493 11.9698C2.83389 12.373 -0.368867 9.17028 0.034358 5.34925C0.330056 2.56508 2.56892 0.330056 5.34925 0.034358C9.17028 -0.368867 12.373 2.83389 11.966 6.65493C11.6741 9.43526 9.4391 11.6741 6.65493 11.9698ZM6.4322 0.744802C3.18719 0.487506 0.487506 3.18335 0.744802 6.4322C0.948335 8.98595 3.01822 11.0558 5.57198 11.2594C8.81698 11.5167 11.5167 8.82082 11.2594 5.57582C11.0558 3.01822 8.98595 0.952175 6.4322 0.744802Z" fill="white"/>
<path d="M8.8604 7.09592H5.74513C5.46088 7.09592 5.22656 6.86544 5.22656 6.57734V3.46208C5.22656 3.30458 5.31875 3.15093 5.4724 3.101C5.72593 3.02033 5.9564 3.20855 5.9564 3.44671V6.25852C5.9564 6.31614 6.0025 6.36223 6.06012 6.36223H8.87193C9.11008 6.36223 9.29831 6.59271 9.21764 6.84623C9.17539 6.99988 9.02173 7.09592 8.8604 7.09592Z" fill="white"/>
</svg>
