<svg width="36" height="36" viewBox="0 0 36 36" fill="none" xmlns="http://www.w3.org/2000/svg">
<path d="M18 18L31.5 4.5" stroke="#C4E39A" stroke-width="3" stroke-linecap="round" stroke-linejoin="round"/>
<path d="M27.5454 8.45492C25.154 6.06826 21.9539 4.66608 18.5782 4.5258C15.2026 4.38552 11.8972 5.51735 9.31602 7.69737C6.73486 9.8774 5.06594 12.9468 4.63945 16.2984C4.21296 19.6499 5.05995 23.0395 7.01286 25.7965C8.96577 28.5535 11.8823 30.4771 15.1856 31.1867C18.4888 31.8963 21.9381 31.3403 24.851 29.6286C27.7639 27.9169 29.9282 25.1743 30.9159 21.9433C31.9035 18.7123 31.6424 15.2282 30.1844 12.1805" stroke="#C4E39A" stroke-width="3" stroke-linecap="round" stroke-linejoin="round"/>
<path d="M22.7726 13.2269C21.6566 12.111 20.185 11.4214 18.6133 11.2779C17.0417 11.1345 15.4695 11.5463 14.17 12.4418C12.8705 13.3372 11.9258 14.6597 11.5001 16.1794C11.0745 17.699 11.1948 19.3198 11.8401 20.76C12.4855 22.2002 13.6151 23.3687 15.0325 24.0625C16.45 24.7563 18.0658 24.9314 19.599 24.5575C21.1322 24.1836 22.486 23.2843 23.425 22.0159C24.3639 20.7474 24.8288 19.1901 24.7387 17.6145" stroke="#C4E39A" stroke-width="3" stroke-linecap="round" stroke-linejoin="round"/>
</svg>
