<svg width="36" height="36" viewBox="0 0 36 36" fill="none" xmlns="http://www.w3.org/2000/svg">
<g clip-path="url(#clip0_4332_4351)">
<path fill-rule="evenodd" clip-rule="evenodd" d="M4.875 4.875H27.4792V8.52083H26.0208V6.33333H6.33333V23.1042H21.928V24.5625H4.875V4.875ZM26.75 14.3542C27.3302 14.3542 27.8866 14.1237 28.2968 13.7135C28.707 13.3032 28.9375 12.7468 28.9375 12.1667C28.9375 11.5865 28.707 11.0301 28.2968 10.6199C27.8866 10.2096 27.3302 9.97917 26.75 9.97917C26.1698 9.97917 25.6134 10.2096 25.2032 10.6199C24.793 11.0301 24.5625 11.5865 24.5625 12.1667C24.5625 12.7468 24.793 13.3032 25.2032 13.7135C25.6134 14.1237 26.1698 14.3542 26.75 14.3542ZM28.2309 15.8198C29.1781 15.8198 29.9277 16.2456 30.4184 16.9033C30.8771 17.5195 31.071 18.2815 31.1148 18.9851C31.1581 19.7069 31.0598 20.4302 30.8253 21.1143C30.6066 21.7486 30.2369 22.4049 29.6667 22.8548V30.0312C29.6672 30.3061 29.5643 30.571 29.3783 30.7733C29.1924 30.9757 28.9371 31.1007 28.6633 31.1234C28.3894 31.1461 28.117 31.0648 27.9003 30.8959C27.6836 30.7269 27.5385 30.4825 27.4938 30.2114L26.5531 24.5625H26.3358L25.2727 30.2325C25.2222 30.5001 25.0737 30.7393 24.8563 30.9032C24.6388 31.0671 24.368 31.144 24.0968 31.1188C23.8257 31.0936 23.5737 30.9682 23.3901 30.7671C23.2065 30.566 23.1045 30.3036 23.1042 30.0312V19.6282C22.9583 19.8503 22.8144 20.0737 22.6725 20.2983L22.6156 20.388L22.601 20.4114L22.5974 20.4179C22.4991 20.5757 22.3623 20.7058 22.1997 20.796C22.0372 20.8862 21.8543 20.9335 21.6684 20.9334H18.0226C17.7325 20.9334 17.4543 20.8182 17.2492 20.6131C17.0441 20.408 16.9289 20.1298 16.9289 19.8397C16.9289 19.5496 17.0441 19.2714 17.2492 19.0663C17.4543 18.8612 17.7325 18.7459 18.0226 18.7459H21.0683C21.2455 18.4718 21.4789 18.1159 21.7239 17.7586C21.9791 17.386 22.2605 16.9916 22.5114 16.6824C22.6331 16.5315 22.7695 16.374 22.9066 16.2449C22.9736 16.1815 23.067 16.0991 23.1807 16.0261C23.3811 15.8936 23.6157 15.8222 23.8559 15.8205L28.2309 15.8198Z" fill="#FFAE92"/>
</g>
<defs>
<clipPath id="clip0_4332_4351">
<rect width="35" height="35" fill="white" transform="translate(0.5 0.5)"/>
</clipPath>
</defs>
</svg>
