<svg width="22" height="30" viewBox="0 0 22 30" fill="none" xmlns="http://www.w3.org/2000/svg">
<path d="M21.9997 5.26013C21.9997 4.88371 21.8502 4.5227 21.584 4.25652C21.3178 3.99035 20.9568 3.84081 20.5804 3.84081H15.6731V1.78635C15.6731 1.31582 15.4862 0.864559 15.1535 0.531842C14.8208 0.199125 14.3695 0.012207 13.899 0.012207H8.10106C7.63052 0.012207 7.17926 0.199125 6.84655 0.531842C6.51383 0.864559 6.32691 1.31582 6.32691 1.78635V3.84081H1.41962C1.0432 3.84081 0.682187 3.99035 0.416014 4.25652C0.14984 4.5227 0.000305176 4.88371 0.000305176 5.26013V7.46007C0.000305176 7.8365 0.14984 8.19751 0.416014 8.46368C0.682187 8.72985 1.0432 8.87939 1.41962 8.87939H2.17541V26.4399C2.17541 27.381 2.54924 28.2835 3.21468 28.9489C3.88011 29.6143 4.78264 29.9882 5.7237 29.9882H16.2763C17.2174 29.9882 18.1199 29.6143 18.7853 28.9489C19.4508 28.2835 19.8246 27.381 19.8246 26.4399V8.87939H20.5804C20.9568 8.87939 21.3178 8.72985 21.584 8.46368C21.8502 8.19751 21.9997 7.8365 21.9997 7.46007V5.26013ZM7.74623 1.78635C7.74623 1.69225 7.78361 1.60199 7.85015 1.53545C7.9167 1.46891 8.00695 1.43152 8.10106 1.43152H13.899C13.9931 1.43152 14.0833 1.46891 14.1499 1.53545C14.2164 1.60199 14.2538 1.69225 14.2538 1.78635V3.84081H7.74623V1.78635ZM18.3911 26.4399C18.3911 27.0045 18.1668 27.546 17.7675 27.9453C17.3683 28.3446 16.8268 28.5689 16.2621 28.5689H5.72015C5.15551 28.5689 4.614 28.3446 4.21474 27.9453C3.81548 27.546 3.59118 27.0045 3.59118 26.4399V8.87939H18.4053L18.3911 26.4399ZM20.5804 7.46007H1.41962V5.26013H20.5804V7.46007Z" fill="#5FD3AC"/>
<path d="M11.0004 25.6443C11.1886 25.6443 11.3691 25.5696 11.5022 25.4365C11.6353 25.3034 11.7101 25.1229 11.7101 24.9347V12.9059C11.7101 12.7177 11.6353 12.5372 11.5022 12.4041C11.3691 12.2711 11.1886 12.1963 11.0004 12.1963C10.8122 12.1963 10.6317 12.2711 10.4986 12.4041C10.3655 12.5372 10.2907 12.7177 10.2907 12.9059V24.9347C10.2907 25.1229 10.3655 25.3034 10.4986 25.4365C10.6317 25.5696 10.8122 25.6443 11.0004 25.6443Z" fill="#5FD3AC"/>
<path d="M14.9032 25.6443C15.0914 25.6443 15.2719 25.5696 15.405 25.4365C15.5381 25.3034 15.6129 25.1229 15.6129 24.9347V12.9059C15.6129 12.7177 15.5381 12.5372 15.405 12.4041C15.2719 12.2711 15.0914 12.1963 14.9032 12.1963C14.715 12.1963 14.5345 12.2711 14.4014 12.4041C14.2683 12.5372 14.1936 12.7177 14.1936 12.9059V24.9347C14.1936 25.1229 14.2683 25.3034 14.4014 25.4365C14.5345 25.5696 14.715 25.6443 14.9032 25.6443Z" fill="#5FD3AC"/>
<path d="M7.09677 25.6443C7.28499 25.6443 7.46549 25.5696 7.59858 25.4365C7.73167 25.3034 7.80643 25.1229 7.80643 24.9347V12.9059C7.80643 12.7177 7.73167 12.5372 7.59858 12.4041C7.46549 12.2711 7.28499 12.1963 7.09677 12.1963C6.90856 12.1963 6.72806 12.2711 6.59497 12.4041C6.46188 12.5372 6.38712 12.7177 6.38712 12.9059V24.9347C6.38712 25.1229 6.46188 25.3034 6.59497 25.4365C6.72806 25.5696 6.90856 25.6443 7.09677 25.6443Z" fill="#5FD3AC"/>
</svg>
