<svg width="20" height="21" viewBox="0 0 20 21" fill="none" xmlns="http://www.w3.org/2000/svg">
  <path d="M5.33333 4.10667V8.69801C5.33333 12.0064 7.3915 14.7486 9.96462 14.7732C10.5804 14.7792 11.191 14.6284 11.7613 14.3296C12.3316 14.0307 12.8502 13.5898 13.2873 13.032C13.7244 12.4743 14.0713 11.8109 14.308 11.0799C14.5448 10.349 14.6667 9.56509 14.6667 8.77333V4.10667C14.6667 3.92986 14.612 3.76029 14.5148 3.63526C14.4176 3.51024 14.2857 3.44 14.1481 3.44H5.85185C5.71433 3.44 5.58244 3.51024 5.4852 3.63526C5.38796 3.76029 5.33333 3.92986 5.33333 4.10667Z" stroke="currentColor" stroke-width="2" stroke-linecap="round" stroke-linejoin="round"/>
  <path d="M7.70833 18.2733H12.2917" stroke="currentColor" stroke-width="2" stroke-linecap="round" stroke-linejoin="round"/>
  <path d="M10 15.1483V18.2733" stroke="currentColor" stroke-width="2" stroke-linecap="round" stroke-linejoin="round"/>
  <path d="M14.6667 10.1066H15.2911C15.8327 10.1066 16.3522 9.86581 16.7352 9.43716C17.1182 9.0085 17.3333 8.42712 17.3333 7.82091V6.67806C17.3333 6.5265 17.2795 6.38116 17.1838 6.274C17.088 6.16683 16.9582 6.10663 16.8228 6.10663H14.7805" stroke="currentColor" stroke-width="2" stroke-linecap="round" stroke-linejoin="round"/>
  <path d="M5.33333 10.1066H4.69401C4.15633 10.1066 3.64066 9.86581 3.26046 9.43716C2.88026 9.0085 2.66667 8.42712 2.66667 7.82091V6.67806C2.66667 6.5265 2.72006 6.38116 2.81512 6.274C2.91017 6.16683 3.03908 6.10663 3.1735 6.10663H5.20085" stroke="currentColor" stroke-width="2" stroke-linecap="round" stroke-linejoin="round"/>
</svg>
