<svg width="18" height="18" viewBox="0 0 18 18" fill="currentColor" xmlns="http://www.w3.org/2000/svg">
<path fill-rule="evenodd" clip-rule="evenodd" d="M0.642857 0C0.287849 0 0 0.287849 0 0.642857V3.21428C0 5.13595 1.4054 6.72946 3.24441 7.02293C3.47486 9.28098 5.00352 11.1537 7.07143 11.8848V12.8571C6.79477 12.8571 6.5491 13.0342 6.46156 13.2966L5.9652 14.7857H5.78569C5.50903 14.7857 5.26336 14.9627 5.17582 15.2252L4.53296 17.1538C4.46767 17.3498 4.50053 17.5653 4.62135 17.7329C4.74218 17.9007 4.93618 18 5.1428 18H12.8571C13.0637 18 13.2577 17.9007 13.3785 17.7329C13.4994 17.5653 13.5322 17.3498 13.4669 17.1538L12.8241 15.2252C12.7365 14.9627 12.4909 14.7857 12.2142 14.7857H12.0347L11.5383 13.2966C11.4508 13.0342 11.2051 12.8571 10.9285 12.8571V11.8848C12.9964 11.1538 14.525 9.28105 14.7555 7.02293C16.5945 6.72934 17.9999 5.13584 17.9999 3.21428V0.642857C17.9999 0.287849 17.712 0 17.357 0H0.642857ZM3.21429 1.28571H1.28571V3.21428C1.28571 4.41246 2.10523 5.41921 3.21429 5.70478V1.28571ZM16.7143 3.21428C16.7143 4.41246 15.8948 5.41921 14.7857 5.70478V1.2856H16.7143V3.21428Z" fill="currentColor"/>
</svg>
