<svg width="32" height="32" viewBox="0 0 32 32" fill="none" xmlns="http://www.w3.org/2000/svg">
<path d="M11 20C14.5899 20 17.5 17.0899 17.5 13.5C17.5 9.91015 14.5899 7 11 7C7.41015 7 4.5 9.91015 4.5 13.5C4.5 17.0899 7.41015 20 11 20Z" stroke="currentColor" stroke-width="3" stroke-miterlimit="10"/>
<path d="M19.4286 7.24117C20.3226 6.98928 21.2602 6.9319 22.1783 7.07289C23.0964 7.21388 23.9736 7.54997 24.7508 8.05852C25.528 8.56708 26.1873 9.23629 26.6841 10.0211C27.1809 10.8059 27.5038 11.688 27.631 12.6081C27.7582 13.5282 27.6868 14.4648 27.4215 15.355C27.1562 16.2451 26.7032 17.0681 26.0931 17.7684C25.483 18.4688 24.7299 19.0302 23.8845 19.415C23.0391 19.7998 22.1211 19.9989 21.1923 19.9991" stroke="currentColor" stroke-width="3" stroke-linecap="round" stroke-linejoin="round"/>
<path d="M2 24.6746C3.01517 23.2306 4.36287 22.052 5.92931 21.2384C7.49576 20.4248 9.23497 20.0001 11.0001 20C12.7652 19.9999 14.5045 20.4246 16.071 21.238C17.6375 22.0515 18.9853 23.23 20.0006 24.6739" stroke="currentColor" stroke-width="3" stroke-linecap="round" stroke-linejoin="round"/>
<path d="M21.1786 20C22.9439 19.9987 24.6835 20.4228 26.2501 21.2364C27.8168 22.05 29.1643 23.2291 30.1786 24.6739" stroke="currentColor" stroke-width="3" stroke-linecap="round" stroke-linejoin="round"/>
</svg>
